<svg width="11" height="10" viewBox="0 0 11 10" fill="none" xmlns="http://www.w3.org/2000/svg">
<rect width="11" height="10" fill="#E5E5E5"/>
<g id="Desktop" clip-path="url(#clip0_0_1)">
<rect width="1600" height="5738" transform="translate(-558 -3818)" fill="white"/>
<g id="Feedback">
<g id="Group 125">
<rect id="Rectangle 65" x="-545" y="-2006" width="1596" height="2346" fill="white"/>
<path id="Thanks a lot for the prompt service. Really appreciate. Excellence taste in Every Bite.Add a joy of best Taste. Foodie Moments." opacity="0.7" d="M-260.816 -53.1406H-264.473V-43H-265.965V-53.1406H-269.613V-54.375H-260.816V-53.1406ZM-257.91 -50.4297C-257.27 -51.2161 -256.436 -51.6094 -255.41 -51.6094C-253.624 -51.6094 -252.723 -50.6016 -252.707 -48.5859V-43H-254.152V-48.5938C-254.158 -49.2031 -254.298 -49.6536 -254.574 -49.9453C-254.845 -50.237 -255.27 -50.3828 -255.848 -50.3828C-256.316 -50.3828 -256.728 -50.2578 -257.082 -50.0078C-257.436 -49.7578 -257.712 -49.4297 -257.91 -49.0234V-43H-259.355V-55H-257.91V-50.4297ZM-245.324 -43C-245.408 -43.1667 -245.475 -43.4635 -245.527 -43.8906C-246.199 -43.1927 -247.001 -42.8438 -247.934 -42.8438C-248.767 -42.8438 -249.452 -43.0781 -249.988 -43.5469C-250.52 -44.0208 -250.785 -44.6198 -250.785 -45.3438C-250.785 -46.224 -250.452 -46.9062 -249.785 -47.3906C-249.113 -47.8802 -248.171 -48.125 -246.957 -48.125H-245.551V-48.7891C-245.551 -49.2943 -245.702 -49.6953 -246.004 -49.9922C-246.306 -50.2943 -246.751 -50.4453 -247.34 -50.4453C-247.855 -50.4453 -248.288 -50.3151 -248.637 -50.0547C-248.986 -49.7943 -249.16 -49.4792 -249.16 -49.1094H-250.613C-250.613 -49.5312 -250.465 -49.9375 -250.168 -50.3281C-249.866 -50.724 -249.46 -51.0365 -248.949 -51.2656C-248.434 -51.4948 -247.868 -51.6094 -247.254 -51.6094C-246.28 -51.6094 -245.517 -51.3646 -244.965 -50.875C-244.413 -50.3906 -244.126 -49.7214 -244.105 -48.8672V-44.9766C-244.105 -44.2005 -244.007 -43.5833 -243.809 -43.125V-43H-245.324ZM-247.723 -44.1016C-247.27 -44.1016 -246.84 -44.2188 -246.434 -44.4531C-246.027 -44.6875 -245.733 -44.9922 -245.551 -45.3672V-47.1016H-246.684C-248.454 -47.1016 -249.34 -46.5833 -249.34 -45.5469C-249.34 -45.0938 -249.189 -44.7396 -248.887 -44.4844C-248.585 -44.2292 -248.197 -44.1016 -247.723 -44.1016ZM-240.473 -51.4531L-240.426 -50.3906C-239.78 -51.2031 -238.936 -51.6094 -237.895 -51.6094C-236.108 -51.6094 -235.207 -50.6016 -235.191 -48.5859V-43H-236.637V-48.5938C-236.642 -49.2031 -236.783 -49.6536 -237.059 -49.9453C-237.329 -50.237 -237.754 -50.3828 -238.332 -50.3828C-238.801 -50.3828 -239.212 -50.2578 -239.566 -50.0078C-239.921 -49.7578 -240.197 -49.4297 -240.395 -49.0234V-43H-241.84V-51.4531H-240.473ZM-230.652 -46.9141L-231.559 -45.9688V-43H-233.004V-55H-231.559V-47.7422L-230.785 -48.6719L-228.152 -51.4531H-226.395L-229.684 -47.9219L-226.012 -43H-227.707L-230.652 -46.9141ZM-219.98 -45.2422C-219.98 -45.6328 -220.129 -45.9349 -220.426 -46.1484C-220.717 -46.3672 -221.23 -46.5547 -221.965 -46.7109C-222.694 -46.8672 -223.275 -47.0547 -223.707 -47.2734C-224.134 -47.4922 -224.452 -47.7526 -224.66 -48.0547C-224.863 -48.3568 -224.965 -48.7161 -224.965 -49.1328C-224.965 -49.8255 -224.673 -50.4115 -224.09 -50.8906C-223.501 -51.3698 -222.751 -51.6094 -221.84 -51.6094C-220.882 -51.6094 -220.105 -51.362 -219.512 -50.8672C-218.913 -50.3724 -218.613 -49.7396 -218.613 -48.9688H-220.066C-220.066 -49.3646 -220.236 -49.7057 -220.574 -49.9922C-220.908 -50.2786 -221.329 -50.4219 -221.84 -50.4219C-222.366 -50.4219 -222.777 -50.3073 -223.074 -50.0781C-223.371 -49.849 -223.52 -49.5495 -223.52 -49.1797C-223.52 -48.8307 -223.382 -48.5677 -223.105 -48.3906C-222.829 -48.2135 -222.332 -48.0443 -221.613 -47.8828C-220.889 -47.7214 -220.303 -47.5286 -219.855 -47.3047C-219.408 -47.0807 -219.077 -46.8099 -218.863 -46.4922C-218.645 -46.1797 -218.535 -45.7969 -218.535 -45.3438C-218.535 -44.5885 -218.837 -43.9818 -219.441 -43.5234C-220.046 -43.0703 -220.829 -42.8438 -221.793 -42.8438C-222.47 -42.8438 -223.069 -42.9635 -223.59 -43.2031C-224.111 -43.4427 -224.52 -43.776 -224.816 -44.2031C-225.108 -44.6354 -225.254 -45.1016 -225.254 -45.6016H-223.809C-223.783 -45.1172 -223.59 -44.7318 -223.23 -44.4453C-222.866 -44.1641 -222.387 -44.0234 -221.793 -44.0234C-221.246 -44.0234 -220.809 -44.1328 -220.48 -44.3516C-220.147 -44.5755 -219.98 -44.8724 -219.98 -45.2422ZM-207.465 -43C-207.548 -43.1667 -207.616 -43.4635 -207.668 -43.8906C-208.34 -43.1927 -209.142 -42.8438 -210.074 -42.8438C-210.908 -42.8438 -211.592 -43.0781 -212.129 -43.5469C-212.66 -44.0208 -212.926 -44.6198 -212.926 -45.3438C-212.926 -46.224 -212.592 -46.9062 -211.926 -47.3906C-211.254 -47.8802 -210.311 -48.125 -209.098 -48.125H-207.691V-48.7891C-207.691 -49.2943 -207.842 -49.6953 -208.145 -49.9922C-208.447 -50.2943 -208.892 -50.4453 -209.48 -50.4453C-209.996 -50.4453 -210.428 -50.3151 -210.777 -50.0547C-211.126 -49.7943 -211.301 -49.4792 -211.301 -49.1094H-212.754C-212.754 -49.5312 -212.605 -49.9375 -212.309 -50.3281C-212.007 -50.724 -211.6 -51.0365 -211.09 -51.2656C-210.574 -51.4948 -210.009 -51.6094 -209.395 -51.6094C-208.421 -51.6094 -207.658 -51.3646 -207.105 -50.875C-206.553 -50.3906 -206.267 -49.7214 -206.246 -48.8672V-44.9766C-206.246 -44.2005 -206.147 -43.5833 -205.949 -43.125V-43H-207.465ZM-209.863 -44.1016C-209.41 -44.1016 -208.98 -44.2188 -208.574 -44.4531C-208.168 -44.6875 -207.874 -44.9922 -207.691 -45.3672V-47.1016H-208.824C-210.595 -47.1016 -211.48 -46.5833 -211.48 -45.5469C-211.48 -45.0938 -211.329 -44.7396 -211.027 -44.4844C-210.725 -44.2292 -210.337 -44.1016 -209.863 -44.1016ZM-198.441 -43H-199.887V-55H-198.441V-43ZM-196.504 -47.3047C-196.504 -48.1328 -196.342 -48.8776 -196.02 -49.5391C-195.691 -50.2005 -195.238 -50.7109 -194.66 -51.0703C-194.077 -51.4297 -193.413 -51.6094 -192.668 -51.6094C-191.517 -51.6094 -190.587 -51.2109 -189.879 -50.4141C-189.165 -49.6172 -188.809 -48.5573 -188.809 -47.2344V-47.1328C-188.809 -46.3099 -188.967 -45.5703 -189.285 -44.9141C-189.598 -44.263 -190.048 -43.7552 -190.637 -43.3906C-191.22 -43.026 -191.892 -42.8438 -192.652 -42.8438C-193.798 -42.8438 -194.728 -43.2422 -195.441 -44.0391C-196.15 -44.8359 -196.504 -45.8906 -196.504 -47.2031V-47.3047ZM-195.051 -47.1328C-195.051 -46.1953 -194.835 -45.4427 -194.402 -44.875C-193.965 -44.3073 -193.382 -44.0234 -192.652 -44.0234C-191.918 -44.0234 -191.335 -44.3099 -190.902 -44.8828C-190.47 -45.4609 -190.254 -46.2682 -190.254 -47.3047C-190.254 -48.2318 -190.475 -48.9818 -190.918 -49.5547C-191.355 -50.1328 -191.939 -50.4219 -192.668 -50.4219C-193.382 -50.4219 -193.957 -50.138 -194.395 -49.5703C-194.832 -49.0026 -195.051 -48.1901 -195.051 -47.1328ZM-185.035 -53.5V-51.4531H-183.457V-50.3359H-185.035V-45.0938C-185.035 -44.7552 -184.965 -44.5 -184.824 -44.3281C-184.684 -44.1615 -184.444 -44.0781 -184.105 -44.0781C-183.939 -44.0781 -183.71 -44.1094 -183.418 -44.1719V-43C-183.798 -42.8958 -184.168 -42.8438 -184.527 -42.8438C-185.173 -42.8438 -185.66 -43.0391 -185.988 -43.4297C-186.316 -43.8203 -186.48 -44.375 -186.48 -45.0938V-50.3359H-188.02V-51.4531H-186.48V-53.5H-185.035ZM-177.082 -43V-50.3359H-178.418V-51.4531H-177.082V-52.3203C-177.082 -53.2266 -176.84 -53.9271 -176.355 -54.4219C-175.871 -54.9167 -175.186 -55.1641 -174.301 -55.1641C-173.967 -55.1641 -173.637 -55.1198 -173.309 -55.0312L-173.387 -53.8594C-173.632 -53.9062 -173.892 -53.9297 -174.168 -53.9297C-174.637 -53.9297 -174.999 -53.7917 -175.254 -53.5156C-175.509 -53.2448 -175.637 -52.8542 -175.637 -52.3438V-51.4531H-173.832V-50.3359H-175.637V-43H-177.082ZM-172.613 -47.3047C-172.613 -48.1328 -172.452 -48.8776 -172.129 -49.5391C-171.801 -50.2005 -171.348 -50.7109 -170.77 -51.0703C-170.186 -51.4297 -169.522 -51.6094 -168.777 -51.6094C-167.626 -51.6094 -166.697 -51.2109 -165.988 -50.4141C-165.275 -49.6172 -164.918 -48.5573 -164.918 -47.2344V-47.1328C-164.918 -46.3099 -165.077 -45.5703 -165.395 -44.9141C-165.707 -44.263 -166.158 -43.7552 -166.746 -43.3906C-167.329 -43.026 -168.001 -42.8438 -168.762 -42.8438C-169.908 -42.8438 -170.837 -43.2422 -171.551 -44.0391C-172.259 -44.8359 -172.613 -45.8906 -172.613 -47.2031V-47.3047ZM-171.16 -47.1328C-171.16 -46.1953 -170.944 -45.4427 -170.512 -44.875C-170.074 -44.3073 -169.491 -44.0234 -168.762 -44.0234C-168.027 -44.0234 -167.444 -44.3099 -167.012 -44.8828C-166.579 -45.4609 -166.363 -46.2682 -166.363 -47.3047C-166.363 -48.2318 -166.585 -48.9818 -167.027 -49.5547C-167.465 -50.1328 -168.048 -50.4219 -168.777 -50.4219C-169.491 -50.4219 -170.066 -50.138 -170.504 -49.5703C-170.941 -49.0026 -171.16 -48.1901 -171.16 -47.1328ZM-159.02 -50.1562C-159.238 -50.1927 -159.475 -50.2109 -159.73 -50.2109C-160.678 -50.2109 -161.322 -49.8073 -161.66 -49V-43H-163.105V-51.4531H-161.699L-161.676 -50.4766C-161.202 -51.2318 -160.53 -51.6094 -159.66 -51.6094C-159.379 -51.6094 -159.165 -51.5729 -159.02 -51.5V-50.1562ZM-151.754 -53.5V-51.4531H-150.176V-50.3359H-151.754V-45.0938C-151.754 -44.7552 -151.684 -44.5 -151.543 -44.3281C-151.402 -44.1615 -151.163 -44.0781 -150.824 -44.0781C-150.658 -44.0781 -150.428 -44.1094 -150.137 -44.1719V-43C-150.517 -42.8958 -150.887 -42.8438 -151.246 -42.8438C-151.892 -42.8438 -152.379 -43.0391 -152.707 -43.4297C-153.035 -43.8203 -153.199 -44.375 -153.199 -45.0938V-50.3359H-154.738V-51.4531H-153.199V-53.5H-151.754ZM-147.035 -50.4297C-146.395 -51.2161 -145.561 -51.6094 -144.535 -51.6094C-142.749 -51.6094 -141.848 -50.6016 -141.832 -48.5859V-43H-143.277V-48.5938C-143.283 -49.2031 -143.423 -49.6536 -143.699 -49.9453C-143.97 -50.237 -144.395 -50.3828 -144.973 -50.3828C-145.441 -50.3828 -145.853 -50.2578 -146.207 -50.0078C-146.561 -49.7578 -146.837 -49.4297 -147.035 -49.0234V-43H-148.48V-55H-147.035V-50.4297ZM-136.16 -42.8438C-137.306 -42.8438 -138.238 -43.2188 -138.957 -43.9688C-139.676 -44.724 -140.035 -45.7318 -140.035 -46.9922V-47.2578C-140.035 -48.0964 -139.876 -48.8438 -139.559 -49.5C-139.236 -50.1615 -138.788 -50.6771 -138.215 -51.0469C-137.637 -51.4219 -137.012 -51.6094 -136.34 -51.6094C-135.241 -51.6094 -134.387 -51.2474 -133.777 -50.5234C-133.168 -49.7995 -132.863 -48.763 -132.863 -47.4141V-46.8125H-138.59C-138.569 -45.9792 -138.327 -45.3047 -137.863 -44.7891C-137.395 -44.2786 -136.801 -44.0234 -136.082 -44.0234C-135.572 -44.0234 -135.139 -44.1276 -134.785 -44.3359C-134.431 -44.5443 -134.121 -44.8203 -133.855 -45.1641L-132.973 -44.4766C-133.681 -43.388 -134.743 -42.8438 -136.16 -42.8438ZM-136.34 -50.4219C-136.923 -50.4219 -137.413 -50.2083 -137.809 -49.7812C-138.204 -49.3594 -138.449 -48.7656 -138.543 -48H-134.309V-48.1094C-134.35 -48.8438 -134.548 -49.4115 -134.902 -49.8125C-135.257 -50.2188 -135.736 -50.4219 -136.34 -50.4219ZM-120.074 -47.1328C-120.074 -45.8464 -120.368 -44.8099 -120.957 -44.0234C-121.546 -43.237 -122.342 -42.8438 -123.348 -42.8438C-124.374 -42.8438 -125.181 -43.1693 -125.77 -43.8203V-39.75H-127.215V-51.4531H-125.895L-125.824 -50.5156C-125.236 -51.2448 -124.418 -51.6094 -123.371 -51.6094C-122.355 -51.6094 -121.553 -51.2266 -120.965 -50.4609C-120.371 -49.6953 -120.074 -48.6302 -120.074 -47.2656V-47.1328ZM-121.52 -47.2969C-121.52 -48.25 -121.723 -49.0026 -122.129 -49.5547C-122.535 -50.1068 -123.092 -50.3828 -123.801 -50.3828C-124.676 -50.3828 -125.332 -49.9948 -125.77 -49.2188V-45.1797C-125.337 -44.4089 -124.676 -44.0234 -123.785 -44.0234C-123.092 -44.0234 -122.543 -44.2969 -122.137 -44.8438C-121.725 -45.3958 -121.52 -46.2135 -121.52 -47.2969ZM-114.145 -50.1562C-114.363 -50.1927 -114.6 -50.2109 -114.855 -50.2109C-115.803 -50.2109 -116.447 -49.8073 -116.785 -49V-43H-118.23V-51.4531H-116.824L-116.801 -50.4766C-116.327 -51.2318 -115.655 -51.6094 -114.785 -51.6094C-114.504 -51.6094 -114.29 -51.5729 -114.145 -51.5V-50.1562ZM-113.348 -47.3047C-113.348 -48.1328 -113.186 -48.8776 -112.863 -49.5391C-112.535 -50.2005 -112.082 -50.7109 -111.504 -51.0703C-110.921 -51.4297 -110.257 -51.6094 -109.512 -51.6094C-108.361 -51.6094 -107.431 -51.2109 -106.723 -50.4141C-106.009 -49.6172 -105.652 -48.5573 -105.652 -47.2344V-47.1328C-105.652 -46.3099 -105.811 -45.5703 -106.129 -44.9141C-106.441 -44.263 -106.892 -43.7552 -107.48 -43.3906C-108.064 -43.026 -108.736 -42.8438 -109.496 -42.8438C-110.642 -42.8438 -111.572 -43.2422 -112.285 -44.0391C-112.993 -44.8359 -113.348 -45.8906 -113.348 -47.2031V-47.3047ZM-111.895 -47.1328C-111.895 -46.1953 -111.678 -45.4427 -111.246 -44.875C-110.809 -44.3073 -110.225 -44.0234 -109.496 -44.0234C-108.762 -44.0234 -108.178 -44.3099 -107.746 -44.8828C-107.314 -45.4609 -107.098 -46.2682 -107.098 -47.3047C-107.098 -48.2318 -107.319 -48.9818 -107.762 -49.5547C-108.199 -50.1328 -108.783 -50.4219 -109.512 -50.4219C-110.225 -50.4219 -110.801 -50.138 -111.238 -49.5703C-111.676 -49.0026 -111.895 -48.1901 -111.895 -47.1328ZM-102.48 -51.4531L-102.441 -50.5156C-101.822 -51.2448 -100.986 -51.6094 -99.9336 -51.6094C-98.7513 -51.6094 -97.9466 -51.1562 -97.5195 -50.25C-97.2383 -50.6562 -96.8737 -50.9844 -96.4258 -51.2344C-95.9727 -51.4844 -95.4388 -51.6094 -94.8242 -51.6094C-92.9701 -51.6094 -92.0273 -50.6276 -91.9961 -48.6641V-43H-93.4414V-48.5781C-93.4414 -49.1823 -93.5794 -49.6328 -93.8555 -49.9297C-94.1315 -50.2318 -94.5951 -50.3828 -95.2461 -50.3828C-95.7826 -50.3828 -96.2279 -50.2214 -96.582 -49.8984C-96.9362 -49.5807 -97.1419 -49.151 -97.1992 -48.6094V-43H-98.6523V-48.5391C-98.6523 -49.7682 -99.2539 -50.3828 -100.457 -50.3828C-101.405 -50.3828 -102.053 -49.9792 -102.402 -49.1719V-43H-103.848V-51.4531H-102.48ZM-82.668 -47.1328C-82.668 -45.8464 -82.9622 -44.8099 -83.5508 -44.0234C-84.1393 -43.237 -84.9362 -42.8438 -85.9414 -42.8438C-86.9674 -42.8438 -87.7747 -43.1693 -88.3633 -43.8203V-39.75H-89.8086V-51.4531H-88.4883L-88.418 -50.5156C-87.8294 -51.2448 -87.0117 -51.6094 -85.9648 -51.6094C-84.9492 -51.6094 -84.1471 -51.2266 -83.5586 -50.4609C-82.9648 -49.6953 -82.668 -48.6302 -82.668 -47.2656V-47.1328ZM-84.1133 -47.2969C-84.1133 -48.25 -84.3164 -49.0026 -84.7227 -49.5547C-85.1289 -50.1068 -85.6862 -50.3828 -86.3945 -50.3828C-87.2695 -50.3828 -87.9258 -49.9948 -88.3633 -49.2188V-45.1797C-87.931 -44.4089 -87.2695 -44.0234 -86.3789 -44.0234C-85.6862 -44.0234 -85.1367 -44.2969 -84.7305 -44.8438C-84.319 -45.3958 -84.1133 -46.2135 -84.1133 -47.2969ZM-78.8633 -53.5V-51.4531H-77.2852V-50.3359H-78.8633V-45.0938C-78.8633 -44.7552 -78.793 -44.5 -78.6523 -44.3281C-78.5117 -44.1615 -78.2721 -44.0781 -77.9336 -44.0781C-77.7669 -44.0781 -77.5378 -44.1094 -77.2461 -44.1719V-43C-77.6263 -42.8958 -77.9961 -42.8438 -78.3555 -42.8438C-79.0013 -42.8438 -79.4883 -43.0391 -79.8164 -43.4297C-80.1445 -43.8203 -80.3086 -44.375 -80.3086 -45.0938V-50.3359H-81.8477V-51.4531H-80.3086V-53.5H-78.8633ZM-66.6992 -45.2422C-66.6992 -45.6328 -66.8477 -45.9349 -67.1445 -46.1484C-67.4362 -46.3672 -67.9492 -46.5547 -68.6836 -46.7109C-69.4128 -46.8672 -69.9935 -47.0547 -70.4258 -47.2734C-70.8529 -47.4922 -71.1706 -47.7526 -71.3789 -48.0547C-71.582 -48.3568 -71.6836 -48.7161 -71.6836 -49.1328C-71.6836 -49.8255 -71.3919 -50.4115 -70.8086 -50.8906C-70.2201 -51.3698 -69.4701 -51.6094 -68.5586 -51.6094C-67.6003 -51.6094 -66.8242 -51.362 -66.2305 -50.8672C-65.6315 -50.3724 -65.332 -49.7396 -65.332 -48.9688H-66.7852C-66.7852 -49.3646 -66.9544 -49.7057 -67.293 -49.9922C-67.6263 -50.2786 -68.0482 -50.4219 -68.5586 -50.4219C-69.0846 -50.4219 -69.4961 -50.3073 -69.793 -50.0781C-70.0898 -49.849 -70.2383 -49.5495 -70.2383 -49.1797C-70.2383 -48.8307 -70.1003 -48.5677 -69.8242 -48.3906C-69.5482 -48.2135 -69.0508 -48.0443 -68.332 -47.8828C-67.6081 -47.7214 -67.0221 -47.5286 -66.5742 -47.3047C-66.1263 -47.0807 -65.7956 -46.8099 -65.582 -46.4922C-65.3633 -46.1797 -65.2539 -45.7969 -65.2539 -45.3438C-65.2539 -44.5885 -65.556 -43.9818 -66.1602 -43.5234C-66.7643 -43.0703 -67.5482 -42.8438 -68.5117 -42.8438C-69.1888 -42.8438 -69.7878 -42.9635 -70.3086 -43.2031C-70.8294 -43.4427 -71.2383 -43.776 -71.5352 -44.2031C-71.8268 -44.6354 -71.9727 -45.1016 -71.9727 -45.6016H-70.5273C-70.5013 -45.1172 -70.3086 -44.7318 -69.9492 -44.4453C-69.5846 -44.1641 -69.1055 -44.0234 -68.5117 -44.0234C-67.9648 -44.0234 -67.5273 -44.1328 -67.1992 -44.3516C-66.8659 -44.5755 -66.6992 -44.8724 -66.6992 -45.2422ZM-59.8633 -42.8438C-61.0091 -42.8438 -61.9414 -43.2188 -62.6602 -43.9688C-63.3789 -44.724 -63.7383 -45.7318 -63.7383 -46.9922V-47.2578C-63.7383 -48.0964 -63.5794 -48.8438 -63.2617 -49.5C-62.9388 -50.1615 -62.4909 -50.6771 -61.918 -51.0469C-61.3398 -51.4219 -60.7148 -51.6094 -60.043 -51.6094C-58.944 -51.6094 -58.0898 -51.2474 -57.4805 -50.5234C-56.8711 -49.7995 -56.5664 -48.763 -56.5664 -47.4141V-46.8125H-62.293C-62.2721 -45.9792 -62.0299 -45.3047 -61.5664 -44.7891C-61.0977 -44.2786 -60.5039 -44.0234 -59.7852 -44.0234C-59.2747 -44.0234 -58.8424 -44.1276 -58.4883 -44.3359C-58.1341 -44.5443 -57.8242 -44.8203 -57.5586 -45.1641L-56.6758 -44.4766C-57.3841 -43.388 -58.4466 -42.8438 -59.8633 -42.8438ZM-60.043 -50.4219C-60.6263 -50.4219 -61.1159 -50.2083 -61.5117 -49.7812C-61.9076 -49.3594 -62.1523 -48.7656 -62.2461 -48H-58.0117V-48.1094C-58.0534 -48.8438 -58.2513 -49.4115 -58.6055 -49.8125C-58.9596 -50.2188 -59.4388 -50.4219 -60.043 -50.4219ZM-50.8008 -50.1562C-51.0195 -50.1927 -51.2565 -50.2109 -51.5117 -50.2109C-52.4596 -50.2109 -53.1029 -49.8073 -53.4414 -49V-43H-54.8867V-51.4531H-53.4805L-53.457 -50.4766C-52.9831 -51.2318 -52.3112 -51.6094 -51.4414 -51.6094C-51.1602 -51.6094 -50.9466 -51.5729 -50.8008 -51.5V-50.1562ZM-46.5352 -44.9609L-44.4414 -51.4531H-42.9648L-45.9961 -43H-47.0977L-50.1602 -51.4531H-48.6836L-46.5352 -44.9609ZM-40.0039 -43H-41.4492V-51.4531H-40.0039V-43ZM-41.5664 -53.6953C-41.5664 -53.9297 -41.4961 -54.1276 -41.3555 -54.2891C-41.2096 -54.4505 -40.9961 -54.5312 -40.7148 -54.5312C-40.4336 -54.5312 -40.2201 -54.4505 -40.0742 -54.2891C-39.9284 -54.1276 -39.8555 -53.9297 -39.8555 -53.6953C-39.8555 -53.4609 -39.9284 -53.2656 -40.0742 -53.1094C-40.2201 -52.9531 -40.4336 -52.875 -40.7148 -52.875C-40.9961 -52.875 -41.2096 -52.9531 -41.3555 -53.1094C-41.4961 -53.2656 -41.5664 -53.4609 -41.5664 -53.6953ZM-34.293 -44.0234C-33.7773 -44.0234 -33.3268 -44.1797 -32.9414 -44.4922C-32.556 -44.8047 -32.3424 -45.1953 -32.3008 -45.6641H-30.9336C-30.9596 -45.1797 -31.1263 -44.7188 -31.4336 -44.2812C-31.7409 -43.8438 -32.1523 -43.4948 -32.668 -43.2344C-33.1784 -42.974 -33.7201 -42.8438 -34.293 -42.8438C-35.444 -42.8438 -36.3607 -43.2266 -37.043 -43.9922C-37.7201 -44.763 -38.0586 -45.8151 -38.0586 -47.1484V-47.3906C-38.0586 -48.2135 -37.9076 -48.9453 -37.6055 -49.5859C-37.3034 -50.2266 -36.8711 -50.724 -36.3086 -51.0781C-35.7409 -51.4323 -35.0716 -51.6094 -34.3008 -51.6094C-33.3529 -51.6094 -32.5664 -51.3255 -31.9414 -50.7578C-31.3112 -50.1901 -30.9753 -49.4531 -30.9336 -48.5469H-32.3008C-32.3424 -49.0938 -32.5508 -49.5417 -32.9258 -49.8906C-33.2956 -50.2448 -33.7539 -50.4219 -34.3008 -50.4219C-35.0352 -50.4219 -35.6055 -50.1562 -36.0117 -49.625C-36.4128 -49.099 -36.6133 -48.3359 -36.6133 -47.3359V-47.0625C-36.6133 -46.0885 -36.4128 -45.3385 -36.0117 -44.8125C-35.6107 -44.2865 -35.0378 -44.0234 -34.293 -44.0234ZM-25.8008 -42.8438C-26.9466 -42.8438 -27.8789 -43.2188 -28.5977 -43.9688C-29.3164 -44.724 -29.6758 -45.7318 -29.6758 -46.9922V-47.2578C-29.6758 -48.0964 -29.5169 -48.8438 -29.1992 -49.5C-28.8763 -50.1615 -28.4284 -50.6771 -27.8555 -51.0469C-27.2773 -51.4219 -26.6523 -51.6094 -25.9805 -51.6094C-24.8815 -51.6094 -24.0273 -51.2474 -23.418 -50.5234C-22.8086 -49.7995 -22.5039 -48.763 -22.5039 -47.4141V-46.8125H-28.2305C-28.2096 -45.9792 -27.9674 -45.3047 -27.5039 -44.7891C-27.0352 -44.2786 -26.4414 -44.0234 -25.7227 -44.0234C-25.2122 -44.0234 -24.7799 -44.1276 -24.4258 -44.3359C-24.0716 -44.5443 -23.7617 -44.8203 -23.4961 -45.1641L-22.6133 -44.4766C-23.3216 -43.388 -24.3841 -42.8438 -25.8008 -42.8438ZM-25.9805 -50.4219C-26.5638 -50.4219 -27.0534 -50.2083 -27.4492 -49.7812C-27.8451 -49.3594 -28.0898 -48.7656 -28.1836 -48H-23.9492V-48.1094C-23.9909 -48.8438 -24.1888 -49.4115 -24.543 -49.8125C-24.8971 -50.2188 -25.3763 -50.4219 -25.9805 -50.4219ZM-20.793 -43.7578C-20.793 -44.0078 -20.7201 -44.2161 -20.5742 -44.3828C-20.4232 -44.5495 -20.1992 -44.6328 -19.9023 -44.6328C-19.6055 -44.6328 -19.3815 -44.5495 -19.2305 -44.3828C-19.0742 -44.2161 -18.9961 -44.0078 -18.9961 -43.7578C-18.9961 -43.5182 -19.0742 -43.3177 -19.2305 -43.1562C-19.3815 -42.9948 -19.6055 -42.9141 -19.9023 -42.9141C-20.1992 -42.9141 -20.4232 -42.9948 -20.5742 -43.1562C-20.7201 -43.3177 -20.793 -43.5182 -20.793 -43.7578ZM-8.23828 -47.6016H-10.9102V-43H-12.418V-54.375H-8.65234C-7.37109 -54.375 -6.38672 -54.0833 -5.69922 -53.5C-5.00651 -52.9167 -4.66016 -52.0677 -4.66016 -50.9531C-4.66016 -50.2448 -4.85286 -49.6276 -5.23828 -49.1016C-5.61849 -48.5755 -6.14974 -48.1823 -6.83203 -47.9219L-4.16016 -43.0938V-43H-5.76953L-8.23828 -47.6016ZM-10.9102 -48.8281H-8.60547C-7.86068 -48.8281 -7.26953 -49.0208 -6.83203 -49.4062C-6.38932 -49.7917 -6.16797 -50.3073 -6.16797 -50.9531C-6.16797 -51.6562 -6.37891 -52.1953 -6.80078 -52.5703C-7.21745 -52.9453 -7.82161 -53.1354 -8.61328 -53.1406H-10.9102V-48.8281ZM0.730469 -42.8438C-0.415365 -42.8438 -1.34766 -43.2188 -2.06641 -43.9688C-2.78516 -44.724 -3.14453 -45.7318 -3.14453 -46.9922V-47.2578C-3.14453 -48.0964 -2.98568 -48.8438 -2.66797 -49.5C-2.34505 -50.1615 -1.89714 -50.6771 -1.32422 -51.0469C-0.746094 -51.4219 -0.121094 -51.6094 0.550781 -51.6094C1.64974 -51.6094 2.50391 -51.2474 3.11328 -50.5234C3.72266 -49.7995 4.02734 -48.763 4.02734 -47.4141V-46.8125H-1.69922C-1.67839 -45.9792 -1.4362 -45.3047 -0.972656 -44.7891C-0.503906 -44.2786 0.0898438 -44.0234 0.808594 -44.0234C1.31901 -44.0234 1.7513 -44.1276 2.10547 -44.3359C2.45964 -44.5443 2.76953 -44.8203 3.03516 -45.1641L3.91797 -44.4766C3.20964 -43.388 2.14714 -42.8438 0.730469 -42.8438ZM0.550781 -50.4219C-0.0325521 -50.4219 -0.522135 -50.2083 -0.917969 -49.7812C-1.3138 -49.3594 -1.55859 -48.7656 -1.65234 -48H2.58203V-48.1094C2.54036 -48.8438 2.34245 -49.4115 1.98828 -49.8125C1.63411 -50.2188 1.15495 -50.4219 0.550781 -50.4219ZM10.9258 -43C10.8424 -43.1667 10.7747 -43.4635 10.7227 -43.8906C10.0508 -43.1927 9.2487 -42.8438 8.31641 -42.8438C7.48307 -42.8438 6.79818 -43.0781 6.26172 -43.5469C5.73047 -44.0208 5.46484 -44.6198 5.46484 -45.3438C5.46484 -46.224 5.79818 -46.9062 6.46484 -47.3906C7.13672 -47.8802 8.07943 -48.125 9.29297 -48.125H10.6992V-48.7891C10.6992 -49.2943 10.5482 -49.6953 10.2461 -49.9922C9.94401 -50.2943 9.4987 -50.4453 8.91016 -50.4453C8.39453 -50.4453 7.96224 -50.3151 7.61328 -50.0547C7.26432 -49.7943 7.08984 -49.4792 7.08984 -49.1094H5.63672C5.63672 -49.5312 5.78516 -49.9375 6.08203 -50.3281C6.38411 -50.724 6.79036 -51.0365 7.30078 -51.2656C7.81641 -51.4948 8.38151 -51.6094 8.99609 -51.6094C9.97005 -51.6094 10.7331 -51.3646 11.2852 -50.875C11.8372 -50.3906 12.1237 -49.7214 12.1445 -48.8672V-44.9766C12.1445 -44.2005 12.2435 -43.5833 12.4414 -43.125V-43H10.9258ZM8.52734 -44.1016C8.98047 -44.1016 9.41016 -44.2188 9.81641 -44.4531C10.2227 -44.6875 10.5169 -44.9922 10.6992 -45.3672V-47.1016H9.56641C7.79557 -47.1016 6.91016 -46.5833 6.91016 -45.5469C6.91016 -45.0938 7.0612 -44.7396 7.36328 -44.4844C7.66536 -44.2292 8.05339 -44.1016 8.52734 -44.1016ZM15.9805 -43H14.5352V-55H15.9805V-43ZM19.8711 -43H18.4258V-55H19.8711V-43ZM24.957 -45.1172L26.9258 -51.4531H28.4727L25.0742 -41.6953C24.5482 -40.2891 23.7122 -39.5859 22.5664 -39.5859L22.293 -39.6094L21.7539 -39.7109V-40.8828L22.1445 -40.8516C22.6341 -40.8516 23.0143 -40.9505 23.2852 -41.1484C23.5612 -41.3464 23.7878 -41.7083 23.9648 -42.2344L24.2852 -43.0938L21.2695 -51.4531H22.8477L24.957 -45.1172ZM-263.684 -19C-263.767 -19.1667 -263.835 -19.4635 -263.887 -19.8906C-264.559 -19.1927 -265.361 -18.8438 -266.293 -18.8438C-267.126 -18.8438 -267.811 -19.0781 -268.348 -19.5469C-268.879 -20.0208 -269.145 -20.6198 -269.145 -21.3438C-269.145 -22.224 -268.811 -22.9062 -268.145 -23.3906C-267.473 -23.8802 -266.53 -24.125 -265.316 -24.125H-263.91V-24.7891C-263.91 -25.2943 -264.061 -25.6953 -264.363 -25.9922C-264.665 -26.2943 -265.111 -26.4453 -265.699 -26.4453C-266.215 -26.4453 -266.647 -26.3151 -266.996 -26.0547C-267.345 -25.7943 -267.52 -25.4792 -267.52 -25.1094H-268.973C-268.973 -25.5312 -268.824 -25.9375 -268.527 -26.3281C-268.225 -26.724 -267.819 -27.0365 -267.309 -27.2656C-266.793 -27.4948 -266.228 -27.6094 -265.613 -27.6094C-264.639 -27.6094 -263.876 -27.3646 -263.324 -26.875C-262.772 -26.3906 -262.486 -25.7214 -262.465 -24.8672V-20.9766C-262.465 -20.2005 -262.366 -19.5833 -262.168 -19.125V-19H-263.684ZM-266.082 -20.1016C-265.629 -20.1016 -265.199 -20.2188 -264.793 -20.4531C-264.387 -20.6875 -264.092 -20.9922 -263.91 -21.3672V-23.1016H-265.043C-266.814 -23.1016 -267.699 -22.5833 -267.699 -21.5469C-267.699 -21.0938 -267.548 -20.7396 -267.246 -20.4844C-266.944 -20.2292 -266.556 -20.1016 -266.082 -20.1016ZM-253.059 -23.1328C-253.059 -21.8464 -253.353 -20.8099 -253.941 -20.0234C-254.53 -19.237 -255.327 -18.8438 -256.332 -18.8438C-257.358 -18.8438 -258.165 -19.1693 -258.754 -19.8203V-15.75H-260.199V-27.4531H-258.879L-258.809 -26.5156C-258.22 -27.2448 -257.402 -27.6094 -256.355 -27.6094C-255.34 -27.6094 -254.538 -27.2266 -253.949 -26.4609C-253.355 -25.6953 -253.059 -24.6302 -253.059 -23.2656V-23.1328ZM-254.504 -23.2969C-254.504 -24.25 -254.707 -25.0026 -255.113 -25.5547C-255.52 -26.1068 -256.077 -26.3828 -256.785 -26.3828C-257.66 -26.3828 -258.316 -25.9948 -258.754 -25.2188V-21.1797C-258.322 -20.4089 -257.66 -20.0234 -256.77 -20.0234C-256.077 -20.0234 -255.527 -20.2969 -255.121 -20.8438C-254.71 -21.3958 -254.504 -22.2135 -254.504 -23.2969ZM-244.074 -23.1328C-244.074 -21.8464 -244.368 -20.8099 -244.957 -20.0234C-245.546 -19.237 -246.342 -18.8438 -247.348 -18.8438C-248.374 -18.8438 -249.181 -19.1693 -249.77 -19.8203V-15.75H-251.215V-27.4531H-249.895L-249.824 -26.5156C-249.236 -27.2448 -248.418 -27.6094 -247.371 -27.6094C-246.355 -27.6094 -245.553 -27.2266 -244.965 -26.4609C-244.371 -25.6953 -244.074 -24.6302 -244.074 -23.2656V-23.1328ZM-245.52 -23.2969C-245.52 -24.25 -245.723 -25.0026 -246.129 -25.5547C-246.535 -26.1068 -247.092 -26.3828 -247.801 -26.3828C-248.676 -26.3828 -249.332 -25.9948 -249.77 -25.2188V-21.1797C-249.337 -20.4089 -248.676 -20.0234 -247.785 -20.0234C-247.092 -20.0234 -246.543 -20.2969 -246.137 -20.8438C-245.725 -21.3958 -245.52 -22.2135 -245.52 -23.2969ZM-238.145 -26.1562C-238.363 -26.1927 -238.6 -26.2109 -238.855 -26.2109C-239.803 -26.2109 -240.447 -25.8073 -240.785 -25V-19H-242.23V-27.4531H-240.824L-240.801 -26.4766C-240.327 -27.2318 -239.655 -27.6094 -238.785 -27.6094C-238.504 -27.6094 -238.29 -27.5729 -238.145 -27.5V-26.1562ZM-233.457 -18.8438C-234.603 -18.8438 -235.535 -19.2188 -236.254 -19.9688C-236.973 -20.724 -237.332 -21.7318 -237.332 -22.9922V-23.2578C-237.332 -24.0964 -237.173 -24.8438 -236.855 -25.5C-236.533 -26.1615 -236.085 -26.6771 -235.512 -27.0469C-234.934 -27.4219 -234.309 -27.6094 -233.637 -27.6094C-232.538 -27.6094 -231.684 -27.2474 -231.074 -26.5234C-230.465 -25.7995 -230.16 -24.763 -230.16 -23.4141V-22.8125H-235.887C-235.866 -21.9792 -235.624 -21.3047 -235.16 -20.7891C-234.691 -20.2786 -234.098 -20.0234 -233.379 -20.0234C-232.868 -20.0234 -232.436 -20.1276 -232.082 -20.3359C-231.728 -20.5443 -231.418 -20.8203 -231.152 -21.1641L-230.27 -20.4766C-230.978 -19.388 -232.04 -18.8438 -233.457 -18.8438ZM-233.637 -26.4219C-234.22 -26.4219 -234.71 -26.2083 -235.105 -25.7812C-235.501 -25.3594 -235.746 -24.7656 -235.84 -24H-231.605V-24.1094C-231.647 -24.8438 -231.845 -25.4115 -232.199 -25.8125C-232.553 -26.2188 -233.033 -26.4219 -233.637 -26.4219ZM-225.09 -20.0234C-224.574 -20.0234 -224.124 -20.1797 -223.738 -20.4922C-223.353 -20.8047 -223.139 -21.1953 -223.098 -21.6641H-221.73C-221.757 -21.1797 -221.923 -20.7188 -222.23 -20.2812C-222.538 -19.8438 -222.949 -19.4948 -223.465 -19.2344C-223.975 -18.974 -224.517 -18.8438 -225.09 -18.8438C-226.241 -18.8438 -227.158 -19.2266 -227.84 -19.9922C-228.517 -20.763 -228.855 -21.8151 -228.855 -23.1484V-23.3906C-228.855 -24.2135 -228.704 -24.9453 -228.402 -25.5859C-228.1 -26.2266 -227.668 -26.724 -227.105 -27.0781C-226.538 -27.4323 -225.868 -27.6094 -225.098 -27.6094C-224.15 -27.6094 -223.363 -27.3255 -222.738 -26.7578C-222.108 -26.1901 -221.772 -25.4531 -221.73 -24.5469H-223.098C-223.139 -25.0938 -223.348 -25.5417 -223.723 -25.8906C-224.092 -26.2448 -224.551 -26.4219 -225.098 -26.4219C-225.832 -26.4219 -226.402 -26.1562 -226.809 -25.625C-227.21 -25.099 -227.41 -24.3359 -227.41 -23.3359V-23.0625C-227.41 -22.0885 -227.21 -21.3385 -226.809 -20.8125C-226.408 -20.2865 -225.835 -20.0234 -225.09 -20.0234ZM-218.535 -19H-219.98V-27.4531H-218.535V-19ZM-220.098 -29.6953C-220.098 -29.9297 -220.027 -30.1276 -219.887 -30.2891C-219.741 -30.4505 -219.527 -30.5312 -219.246 -30.5312C-218.965 -30.5312 -218.751 -30.4505 -218.605 -30.2891C-218.46 -30.1276 -218.387 -29.9297 -218.387 -29.6953C-218.387 -29.4609 -218.46 -29.2656 -218.605 -29.1094C-218.751 -28.9531 -218.965 -28.875 -219.246 -28.875C-219.527 -28.875 -219.741 -28.9531 -219.887 -29.1094C-220.027 -29.2656 -220.098 -29.4609 -220.098 -29.6953ZM-210.996 -19C-211.079 -19.1667 -211.147 -19.4635 -211.199 -19.8906C-211.871 -19.1927 -212.673 -18.8438 -213.605 -18.8438C-214.439 -18.8438 -215.124 -19.0781 -215.66 -19.5469C-216.191 -20.0208 -216.457 -20.6198 -216.457 -21.3438C-216.457 -22.224 -216.124 -22.9062 -215.457 -23.3906C-214.785 -23.8802 -213.842 -24.125 -212.629 -24.125H-211.223V-24.7891C-211.223 -25.2943 -211.374 -25.6953 -211.676 -25.9922C-211.978 -26.2943 -212.423 -26.4453 -213.012 -26.4453C-213.527 -26.4453 -213.96 -26.3151 -214.309 -26.0547C-214.658 -25.7943 -214.832 -25.4792 -214.832 -25.1094H-216.285C-216.285 -25.5312 -216.137 -25.9375 -215.84 -26.3281C-215.538 -26.724 -215.132 -27.0365 -214.621 -27.2656C-214.105 -27.4948 -213.54 -27.6094 -212.926 -27.6094C-211.952 -27.6094 -211.189 -27.3646 -210.637 -26.875C-210.085 -26.3906 -209.798 -25.7214 -209.777 -24.8672V-20.9766C-209.777 -20.2005 -209.678 -19.5833 -209.48 -19.125V-19H-210.996ZM-213.395 -20.1016C-212.941 -20.1016 -212.512 -20.2188 -212.105 -20.4531C-211.699 -20.6875 -211.405 -20.9922 -211.223 -21.3672V-23.1016H-212.355C-214.126 -23.1016 -215.012 -22.5833 -215.012 -21.5469C-215.012 -21.0938 -214.861 -20.7396 -214.559 -20.4844C-214.257 -20.2292 -213.868 -20.1016 -213.395 -20.1016ZM-205.551 -29.5V-27.4531H-203.973V-26.3359H-205.551V-21.0938C-205.551 -20.7552 -205.48 -20.5 -205.34 -20.3281C-205.199 -20.1615 -204.96 -20.0781 -204.621 -20.0781C-204.454 -20.0781 -204.225 -20.1094 -203.934 -20.1719V-19C-204.314 -18.8958 -204.684 -18.8438 -205.043 -18.8438C-205.689 -18.8438 -206.176 -19.0391 -206.504 -19.4297C-206.832 -19.8203 -206.996 -20.375 -206.996 -21.0938V-26.3359H-208.535V-27.4531H-206.996V-29.5H-205.551ZM-198.77 -18.8438C-199.915 -18.8438 -200.848 -19.2188 -201.566 -19.9688C-202.285 -20.724 -202.645 -21.7318 -202.645 -22.9922V-23.2578C-202.645 -24.0964 -202.486 -24.8438 -202.168 -25.5C-201.845 -26.1615 -201.397 -26.6771 -200.824 -27.0469C-200.246 -27.4219 -199.621 -27.6094 -198.949 -27.6094C-197.85 -27.6094 -196.996 -27.2474 -196.387 -26.5234C-195.777 -25.7995 -195.473 -24.763 -195.473 -23.4141V-22.8125H-201.199C-201.178 -21.9792 -200.936 -21.3047 -200.473 -20.7891C-200.004 -20.2786 -199.41 -20.0234 -198.691 -20.0234C-198.181 -20.0234 -197.749 -20.1276 -197.395 -20.3359C-197.04 -20.5443 -196.73 -20.8203 -196.465 -21.1641L-195.582 -20.4766C-196.29 -19.388 -197.353 -18.8438 -198.77 -18.8438ZM-198.949 -26.4219C-199.533 -26.4219 -200.022 -26.2083 -200.418 -25.7812C-200.814 -25.3594 -201.059 -24.7656 -201.152 -24H-196.918V-24.1094C-196.96 -24.8438 -197.158 -25.4115 -197.512 -25.8125C-197.866 -26.2188 -198.345 -26.4219 -198.949 -26.4219ZM-193.762 -19.7578C-193.762 -20.0078 -193.689 -20.2161 -193.543 -20.3828C-193.392 -20.5495 -193.168 -20.6328 -192.871 -20.6328C-192.574 -20.6328 -192.35 -20.5495 -192.199 -20.3828C-192.043 -20.2161 -191.965 -20.0078 -191.965 -19.7578C-191.965 -19.5182 -192.043 -19.3177 -192.199 -19.1562C-192.35 -18.9948 -192.574 -18.9141 -192.871 -18.9141C-193.168 -18.9141 -193.392 -18.9948 -193.543 -19.1562C-193.689 -19.3177 -193.762 -19.5182 -193.762 -19.7578ZM-178.949 -24.2578H-183.879V-20.2266H-178.152V-19H-185.379V-30.375H-178.23V-29.1406H-183.879V-25.4844H-178.949V-24.2578ZM-173.676 -24.3672L-171.801 -27.4531H-170.113L-172.879 -23.2734L-170.027 -19H-171.699L-173.652 -22.1641L-175.605 -19H-177.285L-174.434 -23.2734L-177.199 -27.4531H-175.527L-173.676 -24.3672ZM-165.34 -20.0234C-164.824 -20.0234 -164.374 -20.1797 -163.988 -20.4922C-163.603 -20.8047 -163.389 -21.1953 -163.348 -21.6641H-161.98C-162.007 -21.1797 -162.173 -20.7188 -162.48 -20.2812C-162.788 -19.8438 -163.199 -19.4948 -163.715 -19.2344C-164.225 -18.974 -164.767 -18.8438 -165.34 -18.8438C-166.491 -18.8438 -167.408 -19.2266 -168.09 -19.9922C-168.767 -20.763 -169.105 -21.8151 -169.105 -23.1484V-23.3906C-169.105 -24.2135 -168.954 -24.9453 -168.652 -25.5859C-168.35 -26.2266 -167.918 -26.724 -167.355 -27.0781C-166.788 -27.4323 -166.118 -27.6094 -165.348 -27.6094C-164.4 -27.6094 -163.613 -27.3255 -162.988 -26.7578C-162.358 -26.1901 -162.022 -25.4531 -161.98 -24.5469H-163.348C-163.389 -25.0938 -163.598 -25.5417 -163.973 -25.8906C-164.342 -26.2448 -164.801 -26.4219 -165.348 -26.4219C-166.082 -26.4219 -166.652 -26.1562 -167.059 -25.625C-167.46 -25.099 -167.66 -24.3359 -167.66 -23.3359V-23.0625C-167.66 -22.0885 -167.46 -21.3385 -167.059 -20.8125C-166.658 -20.2865 -166.085 -20.0234 -165.34 -20.0234ZM-156.848 -18.8438C-157.993 -18.8438 -158.926 -19.2188 -159.645 -19.9688C-160.363 -20.724 -160.723 -21.7318 -160.723 -22.9922V-23.2578C-160.723 -24.0964 -160.564 -24.8438 -160.246 -25.5C-159.923 -26.1615 -159.475 -26.6771 -158.902 -27.0469C-158.324 -27.4219 -157.699 -27.6094 -157.027 -27.6094C-155.928 -27.6094 -155.074 -27.2474 -154.465 -26.5234C-153.855 -25.7995 -153.551 -24.763 -153.551 -23.4141V-22.8125H-159.277C-159.257 -21.9792 -159.014 -21.3047 -158.551 -20.7891C-158.082 -20.2786 -157.488 -20.0234 -156.77 -20.0234C-156.259 -20.0234 -155.827 -20.1276 -155.473 -20.3359C-155.118 -20.5443 -154.809 -20.8203 -154.543 -21.1641L-153.66 -20.4766C-154.368 -19.388 -155.431 -18.8438 -156.848 -18.8438ZM-157.027 -26.4219C-157.611 -26.4219 -158.1 -26.2083 -158.496 -25.7812C-158.892 -25.3594 -159.137 -24.7656 -159.23 -24H-154.996V-24.1094C-155.038 -24.8438 -155.236 -25.4115 -155.59 -25.8125C-155.944 -26.2188 -156.423 -26.4219 -157.027 -26.4219ZM-150.301 -19H-151.746V-31H-150.301V-19ZM-146.41 -19H-147.855V-31H-146.41V-19ZM-140.582 -18.8438C-141.728 -18.8438 -142.66 -19.2188 -143.379 -19.9688C-144.098 -20.724 -144.457 -21.7318 -144.457 -22.9922V-23.2578C-144.457 -24.0964 -144.298 -24.8438 -143.98 -25.5C-143.658 -26.1615 -143.21 -26.6771 -142.637 -27.0469C-142.059 -27.4219 -141.434 -27.6094 -140.762 -27.6094C-139.663 -27.6094 -138.809 -27.2474 -138.199 -26.5234C-137.59 -25.7995 -137.285 -24.763 -137.285 -23.4141V-22.8125H-143.012C-142.991 -21.9792 -142.749 -21.3047 -142.285 -20.7891C-141.816 -20.2786 -141.223 -20.0234 -140.504 -20.0234C-139.993 -20.0234 -139.561 -20.1276 -139.207 -20.3359C-138.853 -20.5443 -138.543 -20.8203 -138.277 -21.1641L-137.395 -20.4766C-138.103 -19.388 -139.165 -18.8438 -140.582 -18.8438ZM-140.762 -26.4219C-141.345 -26.4219 -141.835 -26.2083 -142.23 -25.7812C-142.626 -25.3594 -142.871 -24.7656 -142.965 -24H-138.73V-24.1094C-138.772 -24.8438 -138.97 -25.4115 -139.324 -25.8125C-139.678 -26.2188 -140.158 -26.4219 -140.762 -26.4219ZM-134.238 -27.4531L-134.191 -26.3906C-133.546 -27.2031 -132.702 -27.6094 -131.66 -27.6094C-129.874 -27.6094 -128.973 -26.6016 -128.957 -24.5859V-19H-130.402V-24.5938C-130.408 -25.2031 -130.548 -25.6536 -130.824 -25.9453C-131.095 -26.237 -131.52 -26.3828 -132.098 -26.3828C-132.566 -26.3828 -132.978 -26.2578 -133.332 -26.0078C-133.686 -25.7578 -133.962 -25.4297 -134.16 -25.0234V-19H-135.605V-27.4531H-134.238ZM-123.387 -20.0234C-122.871 -20.0234 -122.421 -20.1797 -122.035 -20.4922C-121.65 -20.8047 -121.436 -21.1953 -121.395 -21.6641H-120.027C-120.053 -21.1797 -120.22 -20.7188 -120.527 -20.2812C-120.835 -19.8438 -121.246 -19.4948 -121.762 -19.2344C-122.272 -18.974 -122.814 -18.8438 -123.387 -18.8438C-124.538 -18.8438 -125.454 -19.2266 -126.137 -19.9922C-126.814 -20.763 -127.152 -21.8151 -127.152 -23.1484V-23.3906C-127.152 -24.2135 -127.001 -24.9453 -126.699 -25.5859C-126.397 -26.2266 -125.965 -26.724 -125.402 -27.0781C-124.835 -27.4323 -124.165 -27.6094 -123.395 -27.6094C-122.447 -27.6094 -121.66 -27.3255 -121.035 -26.7578C-120.405 -26.1901 -120.069 -25.4531 -120.027 -24.5469H-121.395C-121.436 -25.0938 -121.645 -25.5417 -122.02 -25.8906C-122.389 -26.2448 -122.848 -26.4219 -123.395 -26.4219C-124.129 -26.4219 -124.699 -26.1562 -125.105 -25.625C-125.507 -25.099 -125.707 -24.3359 -125.707 -23.3359V-23.0625C-125.707 -22.0885 -125.507 -21.3385 -125.105 -20.8125C-124.704 -20.2865 -124.132 -20.0234 -123.387 -20.0234ZM-114.895 -18.8438C-116.04 -18.8438 -116.973 -19.2188 -117.691 -19.9688C-118.41 -20.724 -118.77 -21.7318 -118.77 -22.9922V-23.2578C-118.77 -24.0964 -118.611 -24.8438 -118.293 -25.5C-117.97 -26.1615 -117.522 -26.6771 -116.949 -27.0469C-116.371 -27.4219 -115.746 -27.6094 -115.074 -27.6094C-113.975 -27.6094 -113.121 -27.2474 -112.512 -26.5234C-111.902 -25.7995 -111.598 -24.763 -111.598 -23.4141V-22.8125H-117.324C-117.303 -21.9792 -117.061 -21.3047 -116.598 -20.7891C-116.129 -20.2786 -115.535 -20.0234 -114.816 -20.0234C-114.306 -20.0234 -113.874 -20.1276 -113.52 -20.3359C-113.165 -20.5443 -112.855 -20.8203 -112.59 -21.1641L-111.707 -20.4766C-112.415 -19.388 -113.478 -18.8438 -114.895 -18.8438ZM-115.074 -26.4219C-115.658 -26.4219 -116.147 -26.2083 -116.543 -25.7812C-116.939 -25.3594 -117.184 -24.7656 -117.277 -24H-113.043V-24.1094C-113.085 -24.8438 -113.283 -25.4115 -113.637 -25.8125C-113.991 -26.2188 -114.47 -26.4219 -115.074 -26.4219ZM-103.988 -29.5V-27.4531H-102.41V-26.3359H-103.988V-21.0938C-103.988 -20.7552 -103.918 -20.5 -103.777 -20.3281C-103.637 -20.1615 -103.397 -20.0781 -103.059 -20.0781C-102.892 -20.0781 -102.663 -20.1094 -102.371 -20.1719V-19C-102.751 -18.8958 -103.121 -18.8438 -103.48 -18.8438C-104.126 -18.8438 -104.613 -19.0391 -104.941 -19.4297C-105.27 -19.8203 -105.434 -20.375 -105.434 -21.0938V-26.3359H-106.973V-27.4531H-105.434V-29.5H-103.988ZM-95.4961 -19C-95.5794 -19.1667 -95.6471 -19.4635 -95.6992 -19.8906C-96.3711 -19.1927 -97.1732 -18.8438 -98.1055 -18.8438C-98.9388 -18.8438 -99.6237 -19.0781 -100.16 -19.5469C-100.691 -20.0208 -100.957 -20.6198 -100.957 -21.3438C-100.957 -22.224 -100.624 -22.9062 -99.957 -23.3906C-99.2852 -23.8802 -98.3424 -24.125 -97.1289 -24.125H-95.7227V-24.7891C-95.7227 -25.2943 -95.8737 -25.6953 -96.1758 -25.9922C-96.4779 -26.2943 -96.9232 -26.4453 -97.5117 -26.4453C-98.0273 -26.4453 -98.4596 -26.3151 -98.8086 -26.0547C-99.1576 -25.7943 -99.332 -25.4792 -99.332 -25.1094H-100.785C-100.785 -25.5312 -100.637 -25.9375 -100.34 -26.3281C-100.038 -26.724 -99.6315 -27.0365 -99.1211 -27.2656C-98.6055 -27.4948 -98.0404 -27.6094 -97.4258 -27.6094C-96.4518 -27.6094 -95.6888 -27.3646 -95.1367 -26.875C-94.5846 -26.3906 -94.2982 -25.7214 -94.2773 -24.8672V-20.9766C-94.2773 -20.2005 -94.1784 -19.5833 -93.9805 -19.125V-19H-95.4961ZM-97.8945 -20.1016C-97.4414 -20.1016 -97.0117 -20.2188 -96.6055 -20.4531C-96.1992 -20.6875 -95.9049 -20.9922 -95.7227 -21.3672V-23.1016H-96.8555C-98.6263 -23.1016 -99.5117 -22.5833 -99.5117 -21.5469C-99.5117 -21.0938 -99.3607 -20.7396 -99.0586 -20.4844C-98.7565 -20.2292 -98.3685 -20.1016 -97.8945 -20.1016ZM-87.0898 -21.2422C-87.0898 -21.6328 -87.2383 -21.9349 -87.5352 -22.1484C-87.8268 -22.3672 -88.3398 -22.5547 -89.0742 -22.7109C-89.8034 -22.8672 -90.3841 -23.0547 -90.8164 -23.2734C-91.2435 -23.4922 -91.5612 -23.7526 -91.7695 -24.0547C-91.9727 -24.3568 -92.0742 -24.7161 -92.0742 -25.1328C-92.0742 -25.8255 -91.7826 -26.4115 -91.1992 -26.8906C-90.6107 -27.3698 -89.8607 -27.6094 -88.9492 -27.6094C-87.9909 -27.6094 -87.2148 -27.362 -86.6211 -26.8672C-86.0221 -26.3724 -85.7227 -25.7396 -85.7227 -24.9688H-87.1758C-87.1758 -25.3646 -87.3451 -25.7057 -87.6836 -25.9922C-88.0169 -26.2786 -88.4388 -26.4219 -88.9492 -26.4219C-89.4753 -26.4219 -89.8867 -26.3073 -90.1836 -26.0781C-90.4805 -25.849 -90.6289 -25.5495 -90.6289 -25.1797C-90.6289 -24.8307 -90.4909 -24.5677 -90.2148 -24.3906C-89.9388 -24.2135 -89.4414 -24.0443 -88.7227 -23.8828C-87.9987 -23.7214 -87.4128 -23.5286 -86.9648 -23.3047C-86.5169 -23.0807 -86.1862 -22.8099 -85.9727 -22.4922C-85.7539 -22.1797 -85.6445 -21.7969 -85.6445 -21.3438C-85.6445 -20.5885 -85.9466 -19.9818 -86.5508 -19.5234C-87.1549 -19.0703 -87.9388 -18.8438 -88.9023 -18.8438C-89.5794 -18.8438 -90.1784 -18.9635 -90.6992 -19.2031C-91.2201 -19.4427 -91.6289 -19.776 -91.9258 -20.2031C-92.2174 -20.6354 -92.3633 -21.1016 -92.3633 -21.6016H-90.918C-90.8919 -21.1172 -90.6992 -20.7318 -90.3398 -20.4453C-89.9753 -20.1641 -89.4961 -20.0234 -88.9023 -20.0234C-88.3555 -20.0234 -87.918 -20.1328 -87.5898 -20.3516C-87.2565 -20.5755 -87.0898 -20.8724 -87.0898 -21.2422ZM-81.8008 -29.5V-27.4531H-80.2227V-26.3359H-81.8008V-21.0938C-81.8008 -20.7552 -81.7305 -20.5 -81.5898 -20.3281C-81.4492 -20.1615 -81.2096 -20.0781 -80.8711 -20.0781C-80.7044 -20.0781 -80.4753 -20.1094 -80.1836 -20.1719V-19C-80.5638 -18.8958 -80.9336 -18.8438 -81.293 -18.8438C-81.9388 -18.8438 -82.4258 -19.0391 -82.7539 -19.4297C-83.082 -19.8203 -83.2461 -20.375 -83.2461 -21.0938V-26.3359H-84.7852V-27.4531H-83.2461V-29.5H-81.8008ZM-75.0195 -18.8438C-76.1654 -18.8438 -77.0977 -19.2188 -77.8164 -19.9688C-78.5352 -20.724 -78.8945 -21.7318 -78.8945 -22.9922V-23.2578C-78.8945 -24.0964 -78.7357 -24.8438 -78.418 -25.5C-78.0951 -26.1615 -77.6471 -26.6771 -77.0742 -27.0469C-76.4961 -27.4219 -75.8711 -27.6094 -75.1992 -27.6094C-74.1003 -27.6094 -73.2461 -27.2474 -72.6367 -26.5234C-72.0273 -25.7995 -71.7227 -24.763 -71.7227 -23.4141V-22.8125H-77.4492C-77.4284 -21.9792 -77.1862 -21.3047 -76.7227 -20.7891C-76.2539 -20.2786 -75.6602 -20.0234 -74.9414 -20.0234C-74.431 -20.0234 -73.9987 -20.1276 -73.6445 -20.3359C-73.2904 -20.5443 -72.9805 -20.8203 -72.7148 -21.1641L-71.832 -20.4766C-72.5404 -19.388 -73.6029 -18.8438 -75.0195 -18.8438ZM-75.1992 -26.4219C-75.7826 -26.4219 -76.2721 -26.2083 -76.668 -25.7812C-77.0638 -25.3594 -77.3086 -24.7656 -77.4023 -24H-73.168V-24.1094C-73.2096 -24.8438 -73.4076 -25.4115 -73.7617 -25.8125C-74.1159 -26.2188 -74.5951 -26.4219 -75.1992 -26.4219ZM-64.5039 -19H-65.9492V-27.4531H-64.5039V-19ZM-66.0664 -29.6953C-66.0664 -29.9297 -65.9961 -30.1276 -65.8555 -30.2891C-65.7096 -30.4505 -65.4961 -30.5312 -65.2148 -30.5312C-64.9336 -30.5312 -64.7201 -30.4505 -64.5742 -30.2891C-64.4284 -30.1276 -64.3555 -29.9297 -64.3555 -29.6953C-64.3555 -29.4609 -64.4284 -29.2656 -64.5742 -29.1094C-64.7201 -28.9531 -64.9336 -28.875 -65.2148 -28.875C-65.4961 -28.875 -65.7096 -28.9531 -65.8555 -29.1094C-65.9961 -29.2656 -66.0664 -29.4609 -66.0664 -29.6953ZM-60.8164 -27.4531L-60.7695 -26.3906C-60.1237 -27.2031 -59.2799 -27.6094 -58.2383 -27.6094C-56.4518 -27.6094 -55.5508 -26.6016 -55.5352 -24.5859V-19H-56.9805V-24.5938C-56.9857 -25.2031 -57.1263 -25.6536 -57.4023 -25.9453C-57.6732 -26.237 -58.0977 -26.3828 -58.6758 -26.3828C-59.1445 -26.3828 -59.556 -26.2578 -59.9102 -26.0078C-60.2643 -25.7578 -60.5404 -25.4297 -60.7383 -25.0234V-19H-62.1836V-27.4531H-60.8164ZM-42.7305 -24.2578H-47.6602V-20.2266H-41.9336V-19H-49.1602V-30.375H-42.0117V-29.1406H-47.6602V-25.4844H-42.7305V-24.2578ZM-37.707 -20.9609L-35.6133 -27.4531H-34.1367L-37.168 -19H-38.2695L-41.332 -27.4531H-39.8555L-37.707 -20.9609ZM-29.3477 -18.8438C-30.4935 -18.8438 -31.4258 -19.2188 -32.1445 -19.9688C-32.8633 -20.724 -33.2227 -21.7318 -33.2227 -22.9922V-23.2578C-33.2227 -24.0964 -33.0638 -24.8438 -32.7461 -25.5C-32.4232 -26.1615 -31.9753 -26.6771 -31.4023 -27.0469C-30.8242 -27.4219 -30.1992 -27.6094 -29.5273 -27.6094C-28.4284 -27.6094 -27.5742 -27.2474 -26.9648 -26.5234C-26.3555 -25.7995 -26.0508 -24.763 -26.0508 -23.4141V-22.8125H-31.7773C-31.7565 -21.9792 -31.5143 -21.3047 -31.0508 -20.7891C-30.582 -20.2786 -29.9883 -20.0234 -29.2695 -20.0234C-28.7591 -20.0234 -28.3268 -20.1276 -27.9727 -20.3359C-27.6185 -20.5443 -27.3086 -20.8203 -27.043 -21.1641L-26.1602 -20.4766C-26.8685 -19.388 -27.931 -18.8438 -29.3477 -18.8438ZM-29.5273 -26.4219C-30.1107 -26.4219 -30.6003 -26.2083 -30.9961 -25.7812C-31.3919 -25.3594 -31.6367 -24.7656 -31.7305 -24H-27.4961V-24.1094C-27.5378 -24.8438 -27.7357 -25.4115 -28.0898 -25.8125C-28.444 -26.2188 -28.9232 -26.4219 -29.5273 -26.4219ZM-20.2852 -26.1562C-20.5039 -26.1927 -20.7409 -26.2109 -20.9961 -26.2109C-21.944 -26.2109 -22.5872 -25.8073 -22.9258 -25V-19H-24.3711V-27.4531H-22.9648L-22.9414 -26.4766C-22.4674 -27.2318 -21.7956 -27.6094 -20.9258 -27.6094C-20.6445 -27.6094 -20.431 -27.5729 -20.2852 -27.5V-26.1562ZM-16.043 -21.1172L-14.0742 -27.4531H-12.5273L-15.9258 -17.6953C-16.4518 -16.2891 -17.2878 -15.5859 -18.4336 -15.5859L-18.707 -15.6094L-19.2461 -15.7109V-16.8828L-18.8555 -16.8516C-18.3659 -16.8516 -17.9857 -16.9505 -17.7148 -17.1484C-17.4388 -17.3464 -17.2122 -17.7083 -17.0352 -18.2344L-16.7148 -19.0938L-19.7305 -27.4531H-18.1523L-16.043 -21.1172ZM-7.03516 -19V-30.375H-3.31641C-2.08203 -30.375 -1.15495 -30.1198 -0.535156 -29.6094C0.0898438 -29.099 0.402344 -28.3438 0.402344 -27.3438C0.402344 -26.8125 0.251302 -26.3411 -0.0507812 -25.9297C-0.352865 -25.5234 -0.764323 -25.2083 -1.28516 -24.9844C-0.670573 -24.8125 -0.186198 -24.4844 0.167969 -24C0.527344 -23.5208 0.707031 -22.9479 0.707031 -22.2812C0.707031 -21.2604 0.376302 -20.4583 -0.285156 -19.875C-0.946615 -19.2917 -1.88151 -19 -3.08984 -19H-7.03516ZM-5.53516 -24.3203V-20.2266H-3.05859C-2.36068 -20.2266 -1.8112 -20.4062 -1.41016 -20.7656C-1.00391 -21.1302 -0.800781 -21.6302 -0.800781 -22.2656C-0.800781 -23.6354 -1.54557 -24.3203 -3.03516 -24.3203H-5.53516ZM-5.53516 -25.5234H-3.26953C-2.61328 -25.5234 -2.08984 -25.6875 -1.69922 -26.0156C-1.30339 -26.3438 -1.10547 -26.7891 -1.10547 -27.3516C-1.10547 -27.9766 -1.28776 -28.4297 -1.65234 -28.7109C-2.01693 -28.9974 -2.57161 -29.1406 -3.31641 -29.1406H-5.53516V-25.5234ZM4.27734 -19H2.83203V-27.4531H4.27734V-19ZM2.71484 -29.6953C2.71484 -29.9297 2.78516 -30.1276 2.92578 -30.2891C3.07161 -30.4505 3.28516 -30.5312 3.56641 -30.5312C3.84766 -30.5312 4.0612 -30.4505 4.20703 -30.2891C4.35286 -30.1276 4.42578 -29.9297 4.42578 -29.6953C4.42578 -29.4609 4.35286 -29.2656 4.20703 -29.1094C4.0612 -28.9531 3.84766 -28.875 3.56641 -28.875C3.28516 -28.875 3.07161 -28.9531 2.92578 -29.1094C2.78516 -29.2656 2.71484 -29.4609 2.71484 -29.6953ZM8.55859 -29.5V-27.4531H10.1367V-26.3359H8.55859V-21.0938C8.55859 -20.7552 8.62891 -20.5 8.76953 -20.3281C8.91016 -20.1615 9.14974 -20.0781 9.48828 -20.0781C9.65495 -20.0781 9.88411 -20.1094 10.1758 -20.1719V-19C9.79557 -18.8958 9.42578 -18.8438 9.06641 -18.8438C8.42057 -18.8438 7.93359 -19.0391 7.60547 -19.4297C7.27734 -19.8203 7.11328 -20.375 7.11328 -21.0938V-26.3359H5.57422V-27.4531H7.11328V-29.5H8.55859ZM15.3398 -18.8438C14.194 -18.8438 13.2617 -19.2188 12.543 -19.9688C11.8242 -20.724 11.4648 -21.7318 11.4648 -22.9922V-23.2578C11.4648 -24.0964 11.6237 -24.8438 11.9414 -25.5C12.2643 -26.1615 12.7122 -26.6771 13.2852 -27.0469C13.8633 -27.4219 14.4883 -27.6094 15.1602 -27.6094C16.2591 -27.6094 17.1133 -27.2474 17.7227 -26.5234C18.332 -25.7995 18.6367 -24.763 18.6367 -23.4141V-22.8125H12.9102C12.931 -21.9792 13.1732 -21.3047 13.6367 -20.7891C14.1055 -20.2786 14.6992 -20.0234 15.418 -20.0234C15.9284 -20.0234 16.3607 -20.1276 16.7148 -20.3359C17.069 -20.5443 17.3789 -20.8203 17.6445 -21.1641L18.5273 -20.4766C17.819 -19.388 16.7565 -18.8438 15.3398 -18.8438ZM15.1602 -26.4219C14.5768 -26.4219 14.0872 -26.2083 13.6914 -25.7812C13.2956 -25.3594 13.0508 -24.7656 12.957 -24H17.1914V-24.1094C17.1497 -24.8438 16.9518 -25.4115 16.5977 -25.8125C16.2435 -26.2188 15.7643 -26.4219 15.1602 -26.4219ZM20.3477 -19.7578C20.3477 -20.0078 20.4206 -20.2161 20.5664 -20.3828C20.7174 -20.5495 20.9414 -20.6328 21.2383 -20.6328C21.5352 -20.6328 21.7591 -20.5495 21.9102 -20.3828C22.0664 -20.2161 22.1445 -20.0078 22.1445 -19.7578C22.1445 -19.5182 22.0664 -19.3177 21.9102 -19.1562C21.7591 -18.9948 21.5352 -18.9141 21.2383 -18.9141C20.9414 -18.9141 20.7174 -18.9948 20.5664 -19.1562C20.4206 -19.3177 20.3477 -19.5182 20.3477 -19.7578ZM31.043 -21.9688H26.2773L25.207 -19H23.6602L28.0039 -30.375H29.3164L33.668 -19H32.1289L31.043 -21.9688ZM26.7305 -23.2031H30.5977L28.6602 -28.5234L26.7305 -23.2031ZM34.6211 -23.2969C34.6211 -24.5938 34.9284 -25.6354 35.543 -26.4219C36.1576 -27.2135 36.9622 -27.6094 37.957 -27.6094C38.9466 -27.6094 39.7305 -27.2708 40.3086 -26.5938V-31H41.7539V-19H40.4258L40.3555 -19.9062C39.7773 -19.1979 38.9727 -18.8438 37.9414 -18.8438C36.9622 -18.8438 36.1628 -19.2448 35.543 -20.0469C34.9284 -20.849 34.6211 -21.8958 34.6211 -23.1875V-23.2969ZM36.0664 -23.1328C36.0664 -22.1745 36.2643 -21.4245 36.6602 -20.8828C37.056 -20.3411 37.6029 -20.0703 38.3008 -20.0703C39.2174 -20.0703 39.8867 -20.4818 40.3086 -21.3047V-25.1875C39.8763 -25.9844 39.2122 -26.3828 38.3164 -26.3828C37.6081 -26.3828 37.056 -26.1094 36.6602 -25.5625C36.2643 -25.0156 36.0664 -24.2057 36.0664 -23.1328ZM43.6523 -23.2969C43.6523 -24.5938 43.9596 -25.6354 44.5742 -26.4219C45.1888 -27.2135 45.9935 -27.6094 46.9883 -27.6094C47.9779 -27.6094 48.7617 -27.2708 49.3398 -26.5938V-31H50.7852V-19H49.457L49.3867 -19.9062C48.8086 -19.1979 48.0039 -18.8438 46.9727 -18.8438C45.9935 -18.8438 45.194 -19.2448 44.5742 -20.0469C43.9596 -20.849 43.6523 -21.8958 43.6523 -23.1875V-23.2969ZM45.0977 -23.1328C45.0977 -22.1745 45.2956 -21.4245 45.6914 -20.8828C46.0872 -20.3411 46.6341 -20.0703 47.332 -20.0703C48.2487 -20.0703 48.918 -20.4818 49.3398 -21.3047V-25.1875C48.9076 -25.9844 48.2435 -26.3828 47.3477 -26.3828C46.6393 -26.3828 46.0872 -26.1094 45.6914 -25.5625C45.2956 -25.0156 45.0977 -24.2057 45.0977 -23.1328ZM-263.684 5C-263.767 4.83333 -263.835 4.53646 -263.887 4.10938C-264.559 4.80729 -265.361 5.15625 -266.293 5.15625C-267.126 5.15625 -267.811 4.92188 -268.348 4.45312C-268.879 3.97917 -269.145 3.38021 -269.145 2.65625C-269.145 1.77604 -268.811 1.09375 -268.145 0.609375C-267.473 0.119792 -266.53 -0.125 -265.316 -0.125H-263.91V-0.789062C-263.91 -1.29427 -264.061 -1.69531 -264.363 -1.99219C-264.665 -2.29427 -265.111 -2.44531 -265.699 -2.44531C-266.215 -2.44531 -266.647 -2.3151 -266.996 -2.05469C-267.345 -1.79427 -267.52 -1.47917 -267.52 -1.10938H-268.973C-268.973 -1.53125 -268.824 -1.9375 -268.527 -2.32812C-268.225 -2.72396 -267.819 -3.03646 -267.309 -3.26562C-266.793 -3.49479 -266.228 -3.60938 -265.613 -3.60938C-264.639 -3.60938 -263.876 -3.36458 -263.324 -2.875C-262.772 -2.39062 -262.486 -1.72135 -262.465 -0.867188V3.02344C-262.465 3.79948 -262.366 4.41667 -262.168 4.875V5H-263.684ZM-266.082 3.89844C-265.629 3.89844 -265.199 3.78125 -264.793 3.54688C-264.387 3.3125 -264.092 3.00781 -263.91 2.63281V0.898438H-265.043C-266.814 0.898438 -267.699 1.41667 -267.699 2.45312C-267.699 2.90625 -267.548 3.26042 -267.246 3.51562C-266.944 3.77083 -266.556 3.89844 -266.082 3.89844ZM-254.738 -3.45312V5.97656C-254.738 7.60156 -255.475 8.41406 -256.949 8.41406C-257.267 8.41406 -257.561 8.36719 -257.832 8.27344V7.11719C-257.665 7.15885 -257.447 7.17969 -257.176 7.17969C-256.853 7.17969 -256.608 7.09115 -256.441 6.91406C-256.27 6.74219 -256.184 6.4401 -256.184 6.00781V-3.45312H-254.738ZM-256.332 -5.69531C-256.332 -5.92448 -256.262 -6.11979 -256.121 -6.28125C-255.975 -6.44792 -255.764 -6.53125 -255.488 -6.53125C-255.207 -6.53125 -254.993 -6.45052 -254.848 -6.28906C-254.702 -6.1276 -254.629 -5.92969 -254.629 -5.69531C-254.629 -5.46094 -254.702 -5.26562 -254.848 -5.10938C-254.993 -4.95312 -255.207 -4.875 -255.488 -4.875C-255.77 -4.875 -255.98 -4.95312 -256.121 -5.10938C-256.262 -5.26562 -256.332 -5.46094 -256.332 -5.69531ZM-252.785 0.695312C-252.785 -0.132812 -252.624 -0.877604 -252.301 -1.53906C-251.973 -2.20052 -251.52 -2.71094 -250.941 -3.07031C-250.358 -3.42969 -249.694 -3.60938 -248.949 -3.60938C-247.798 -3.60938 -246.868 -3.21094 -246.16 -2.41406C-245.447 -1.61719 -245.09 -0.557292 -245.09 0.765625V0.867188C-245.09 1.6901 -245.249 2.42969 -245.566 3.08594C-245.879 3.73698 -246.329 4.24479 -246.918 4.60938C-247.501 4.97396 -248.173 5.15625 -248.934 5.15625C-250.079 5.15625 -251.009 4.75781 -251.723 3.96094C-252.431 3.16406 -252.785 2.10938 -252.785 0.796875V0.695312ZM-251.332 0.867188C-251.332 1.80469 -251.116 2.55729 -250.684 3.125C-250.246 3.69271 -249.663 3.97656 -248.934 3.97656C-248.199 3.97656 -247.616 3.6901 -247.184 3.11719C-246.751 2.53906 -246.535 1.73177 -246.535 0.695312C-246.535 -0.231771 -246.757 -0.981771 -247.199 -1.55469C-247.637 -2.13281 -248.22 -2.42188 -248.949 -2.42188C-249.663 -2.42188 -250.238 -2.13802 -250.676 -1.57031C-251.113 -1.0026 -251.332 -0.190104 -251.332 0.867188ZM-240.637 2.88281L-238.668 -3.45312H-237.121L-240.52 6.30469C-241.046 7.71094 -241.882 8.41406 -243.027 8.41406L-243.301 8.39062L-243.84 8.28906V7.11719L-243.449 7.14844C-242.96 7.14844 -242.579 7.04948 -242.309 6.85156C-242.033 6.65365 -241.806 6.29167 -241.629 5.76562L-241.309 4.90625L-244.324 -3.45312H-242.746L-240.637 2.88281ZM-232.238 0.695312C-232.238 -0.132812 -232.077 -0.877604 -231.754 -1.53906C-231.426 -2.20052 -230.973 -2.71094 -230.395 -3.07031C-229.811 -3.42969 -229.147 -3.60938 -228.402 -3.60938C-227.251 -3.60938 -226.322 -3.21094 -225.613 -2.41406C-224.9 -1.61719 -224.543 -0.557292 -224.543 0.765625V0.867188C-224.543 1.6901 -224.702 2.42969 -225.02 3.08594C-225.332 3.73698 -225.783 4.24479 -226.371 4.60938C-226.954 4.97396 -227.626 5.15625 -228.387 5.15625C-229.533 5.15625 -230.462 4.75781 -231.176 3.96094C-231.884 3.16406 -232.238 2.10938 -232.238 0.796875V0.695312ZM-230.785 0.867188C-230.785 1.80469 -230.569 2.55729 -230.137 3.125C-229.699 3.69271 -229.116 3.97656 -228.387 3.97656C-227.652 3.97656 -227.069 3.6901 -226.637 3.11719C-226.204 2.53906 -225.988 1.73177 -225.988 0.695312C-225.988 -0.231771 -226.21 -0.981771 -226.652 -1.55469C-227.09 -2.13281 -227.673 -2.42188 -228.402 -2.42188C-229.116 -2.42188 -229.691 -2.13802 -230.129 -1.57031C-230.566 -1.0026 -230.785 -0.190104 -230.785 0.867188ZM-222.02 5V-2.33594H-223.355V-3.45312H-222.02V-4.32031C-222.02 -5.22656 -221.777 -5.92708 -221.293 -6.42188C-220.809 -6.91667 -220.124 -7.16406 -219.238 -7.16406C-218.905 -7.16406 -218.574 -7.11979 -218.246 -7.03125L-218.324 -5.85938C-218.569 -5.90625 -218.829 -5.92969 -219.105 -5.92969C-219.574 -5.92969 -219.936 -5.79167 -220.191 -5.51562C-220.447 -5.24479 -220.574 -4.85417 -220.574 -4.34375V-3.45312H-218.77V-2.33594H-220.574V5H-222.02ZM-206.043 0.867188C-206.043 2.15885 -206.34 3.19792 -206.934 3.98438C-207.527 4.76562 -208.324 5.15625 -209.324 5.15625C-210.392 5.15625 -211.217 4.77865 -211.801 4.02344L-211.871 5H-213.199V-7H-211.754V-2.52344C-211.171 -3.2474 -210.366 -3.60938 -209.34 -3.60938C-208.314 -3.60938 -207.509 -3.22135 -206.926 -2.44531C-206.337 -1.66927 -206.043 -0.606771 -206.043 0.742188V0.867188ZM-207.488 0.703125C-207.488 -0.28125 -207.678 -1.04167 -208.059 -1.57812C-208.439 -2.11458 -208.986 -2.38281 -209.699 -2.38281C-210.652 -2.38281 -211.337 -1.9401 -211.754 -1.05469V2.60156C-211.311 3.48698 -210.621 3.92969 -209.684 3.92969C-208.991 3.92969 -208.452 3.66146 -208.066 3.125C-207.681 2.58854 -207.488 1.78125 -207.488 0.703125ZM-200.707 5.15625C-201.853 5.15625 -202.785 4.78125 -203.504 4.03125C-204.223 3.27604 -204.582 2.26823 -204.582 1.00781V0.742188C-204.582 -0.0963542 -204.423 -0.84375 -204.105 -1.5C-203.783 -2.16146 -203.335 -2.67708 -202.762 -3.04688C-202.184 -3.42188 -201.559 -3.60938 -200.887 -3.60938C-199.788 -3.60938 -198.934 -3.2474 -198.324 -2.52344C-197.715 -1.79948 -197.41 -0.763021 -197.41 0.585938V1.1875H-203.137C-203.116 2.02083 -202.874 2.69531 -202.41 3.21094C-201.941 3.72135 -201.348 3.97656 -200.629 3.97656C-200.118 3.97656 -199.686 3.8724 -199.332 3.66406C-198.978 3.45573 -198.668 3.17969 -198.402 2.83594L-197.52 3.52344C-198.228 4.61198 -199.29 5.15625 -200.707 5.15625ZM-200.887 -2.42188C-201.47 -2.42188 -201.96 -2.20833 -202.355 -1.78125C-202.751 -1.35938 -202.996 -0.765625 -203.09 0H-198.855V-0.109375C-198.897 -0.84375 -199.095 -1.41146 -199.449 -1.8125C-199.803 -2.21875 -200.283 -2.42188 -200.887 -2.42188ZM-190.809 2.75781C-190.809 2.36719 -190.957 2.0651 -191.254 1.85156C-191.546 1.63281 -192.059 1.44531 -192.793 1.28906C-193.522 1.13281 -194.103 0.945312 -194.535 0.726562C-194.962 0.507812 -195.28 0.247396 -195.488 -0.0546875C-195.691 -0.356771 -195.793 -0.716146 -195.793 -1.13281C-195.793 -1.82552 -195.501 -2.41146 -194.918 -2.89062C-194.329 -3.36979 -193.579 -3.60938 -192.668 -3.60938C-191.71 -3.60938 -190.934 -3.36198 -190.34 -2.86719C-189.741 -2.3724 -189.441 -1.73958 -189.441 -0.96875H-190.895C-190.895 -1.36458 -191.064 -1.70573 -191.402 -1.99219C-191.736 -2.27865 -192.158 -2.42188 -192.668 -2.42188C-193.194 -2.42188 -193.605 -2.30729 -193.902 -2.07812C-194.199 -1.84896 -194.348 -1.54948 -194.348 -1.17969C-194.348 -0.830729 -194.21 -0.567708 -193.934 -0.390625C-193.658 -0.213542 -193.16 -0.0442708 -192.441 0.117188C-191.717 0.278646 -191.132 0.471354 -190.684 0.695312C-190.236 0.919271 -189.905 1.1901 -189.691 1.50781C-189.473 1.82031 -189.363 2.20312 -189.363 2.65625C-189.363 3.41146 -189.665 4.01823 -190.27 4.47656C-190.874 4.92969 -191.658 5.15625 -192.621 5.15625C-193.298 5.15625 -193.897 5.03646 -194.418 4.79688C-194.939 4.55729 -195.348 4.22396 -195.645 3.79688C-195.936 3.36458 -196.082 2.89844 -196.082 2.39844H-194.637C-194.611 2.88281 -194.418 3.26823 -194.059 3.55469C-193.694 3.83594 -193.215 3.97656 -192.621 3.97656C-192.074 3.97656 -191.637 3.86719 -191.309 3.64844C-190.975 3.42448 -190.809 3.1276 -190.809 2.75781ZM-185.52 -5.5V-3.45312H-183.941V-2.33594H-185.52V2.90625C-185.52 3.24479 -185.449 3.5 -185.309 3.67188C-185.168 3.83854 -184.928 3.92188 -184.59 3.92188C-184.423 3.92188 -184.194 3.89062 -183.902 3.82812V5C-184.283 5.10417 -184.652 5.15625 -185.012 5.15625C-185.658 5.15625 -186.145 4.96094 -186.473 4.57031C-186.801 4.17969 -186.965 3.625 -186.965 2.90625V-2.33594H-188.504V-3.45312H-186.965V-5.5H-185.52ZM-170.504 -5.14062H-174.16V5H-175.652V-5.14062H-179.301V-6.375H-170.504V-5.14062ZM-164.715 5C-164.798 4.83333 -164.866 4.53646 -164.918 4.10938C-165.59 4.80729 -166.392 5.15625 -167.324 5.15625C-168.158 5.15625 -168.842 4.92188 -169.379 4.45312C-169.91 3.97917 -170.176 3.38021 -170.176 2.65625C-170.176 1.77604 -169.842 1.09375 -169.176 0.609375C-168.504 0.119792 -167.561 -0.125 -166.348 -0.125H-164.941V-0.789062C-164.941 -1.29427 -165.092 -1.69531 -165.395 -1.99219C-165.697 -2.29427 -166.142 -2.44531 -166.73 -2.44531C-167.246 -2.44531 -167.678 -2.3151 -168.027 -2.05469C-168.376 -1.79427 -168.551 -1.47917 -168.551 -1.10938H-170.004C-170.004 -1.53125 -169.855 -1.9375 -169.559 -2.32812C-169.257 -2.72396 -168.85 -3.03646 -168.34 -3.26562C-167.824 -3.49479 -167.259 -3.60938 -166.645 -3.60938C-165.671 -3.60938 -164.908 -3.36458 -164.355 -2.875C-163.803 -2.39062 -163.517 -1.72135 -163.496 -0.867188V3.02344C-163.496 3.79948 -163.397 4.41667 -163.199 4.875V5H-164.715ZM-167.113 3.89844C-166.66 3.89844 -166.23 3.78125 -165.824 3.54688C-165.418 3.3125 -165.124 3.00781 -164.941 2.63281V0.898438H-166.074C-167.845 0.898438 -168.73 1.41667 -168.73 2.45312C-168.73 2.90625 -168.579 3.26042 -168.277 3.51562C-167.975 3.77083 -167.587 3.89844 -167.113 3.89844ZM-156.309 2.75781C-156.309 2.36719 -156.457 2.0651 -156.754 1.85156C-157.046 1.63281 -157.559 1.44531 -158.293 1.28906C-159.022 1.13281 -159.603 0.945312 -160.035 0.726562C-160.462 0.507812 -160.78 0.247396 -160.988 -0.0546875C-161.191 -0.356771 -161.293 -0.716146 -161.293 -1.13281C-161.293 -1.82552 -161.001 -2.41146 -160.418 -2.89062C-159.829 -3.36979 -159.079 -3.60938 -158.168 -3.60938C-157.21 -3.60938 -156.434 -3.36198 -155.84 -2.86719C-155.241 -2.3724 -154.941 -1.73958 -154.941 -0.96875H-156.395C-156.395 -1.36458 -156.564 -1.70573 -156.902 -1.99219C-157.236 -2.27865 -157.658 -2.42188 -158.168 -2.42188C-158.694 -2.42188 -159.105 -2.30729 -159.402 -2.07812C-159.699 -1.84896 -159.848 -1.54948 -159.848 -1.17969C-159.848 -0.830729 -159.71 -0.567708 -159.434 -0.390625C-159.158 -0.213542 -158.66 -0.0442708 -157.941 0.117188C-157.217 0.278646 -156.632 0.471354 -156.184 0.695312C-155.736 0.919271 -155.405 1.1901 -155.191 1.50781C-154.973 1.82031 -154.863 2.20312 -154.863 2.65625C-154.863 3.41146 -155.165 4.01823 -155.77 4.47656C-156.374 4.92969 -157.158 5.15625 -158.121 5.15625C-158.798 5.15625 -159.397 5.03646 -159.918 4.79688C-160.439 4.55729 -160.848 4.22396 -161.145 3.79688C-161.436 3.36458 -161.582 2.89844 -161.582 2.39844H-160.137C-160.111 2.88281 -159.918 3.26823 -159.559 3.55469C-159.194 3.83594 -158.715 3.97656 -158.121 3.97656C-157.574 3.97656 -157.137 3.86719 -156.809 3.64844C-156.475 3.42448 -156.309 3.1276 -156.309 2.75781ZM-151.02 -5.5V-3.45312H-149.441V-2.33594H-151.02V2.90625C-151.02 3.24479 -150.949 3.5 -150.809 3.67188C-150.668 3.83854 -150.428 3.92188 -150.09 3.92188C-149.923 3.92188 -149.694 3.89062 -149.402 3.82812V5C-149.783 5.10417 -150.152 5.15625 -150.512 5.15625C-151.158 5.15625 -151.645 4.96094 -151.973 4.57031C-152.301 4.17969 -152.465 3.625 -152.465 2.90625V-2.33594H-154.004V-3.45312H-152.465V-5.5H-151.02ZM-144.238 5.15625C-145.384 5.15625 -146.316 4.78125 -147.035 4.03125C-147.754 3.27604 -148.113 2.26823 -148.113 1.00781V0.742188C-148.113 -0.0963542 -147.954 -0.84375 -147.637 -1.5C-147.314 -2.16146 -146.866 -2.67708 -146.293 -3.04688C-145.715 -3.42188 -145.09 -3.60938 -144.418 -3.60938C-143.319 -3.60938 -142.465 -3.2474 -141.855 -2.52344C-141.246 -1.79948 -140.941 -0.763021 -140.941 0.585938V1.1875H-146.668C-146.647 2.02083 -146.405 2.69531 -145.941 3.21094C-145.473 3.72135 -144.879 3.97656 -144.16 3.97656C-143.65 3.97656 -143.217 3.8724 -142.863 3.66406C-142.509 3.45573 -142.199 3.17969 -141.934 2.83594L-141.051 3.52344C-141.759 4.61198 -142.822 5.15625 -144.238 5.15625ZM-144.418 -2.42188C-145.001 -2.42188 -145.491 -2.20833 -145.887 -1.78125C-146.283 -1.35938 -146.527 -0.765625 -146.621 0H-142.387V-0.109375C-142.428 -0.84375 -142.626 -1.41146 -142.98 -1.8125C-143.335 -2.21875 -143.814 -2.42188 -144.418 -2.42188ZM-139.23 4.24219C-139.23 3.99219 -139.158 3.78385 -139.012 3.61719C-138.861 3.45052 -138.637 3.36719 -138.34 3.36719C-138.043 3.36719 -137.819 3.45052 -137.668 3.61719C-137.512 3.78385 -137.434 3.99219 -137.434 4.24219C-137.434 4.48177 -137.512 4.68229 -137.668 4.84375C-137.819 5.00521 -138.043 5.08594 -138.34 5.08594C-138.637 5.08594 -138.861 5.00521 -139.012 4.84375C-139.158 4.68229 -139.23 4.48177 -139.23 4.24219ZM-124.574 -0.0234375H-129.348V5H-130.848V-6.375H-123.801V-5.14062H-129.348V-1.25H-124.574V-0.0234375ZM-122.785 0.695312C-122.785 -0.132812 -122.624 -0.877604 -122.301 -1.53906C-121.973 -2.20052 -121.52 -2.71094 -120.941 -3.07031C-120.358 -3.42969 -119.694 -3.60938 -118.949 -3.60938C-117.798 -3.60938 -116.868 -3.21094 -116.16 -2.41406C-115.447 -1.61719 -115.09 -0.557292 -115.09 0.765625V0.867188C-115.09 1.6901 -115.249 2.42969 -115.566 3.08594C-115.879 3.73698 -116.329 4.24479 -116.918 4.60938C-117.501 4.97396 -118.173 5.15625 -118.934 5.15625C-120.079 5.15625 -121.009 4.75781 -121.723 3.96094C-122.431 3.16406 -122.785 2.10938 -122.785 0.796875V0.695312ZM-121.332 0.867188C-121.332 1.80469 -121.116 2.55729 -120.684 3.125C-120.246 3.69271 -119.663 3.97656 -118.934 3.97656C-118.199 3.97656 -117.616 3.6901 -117.184 3.11719C-116.751 2.53906 -116.535 1.73177 -116.535 0.695312C-116.535 -0.231771 -116.757 -0.981771 -117.199 -1.55469C-117.637 -2.13281 -118.22 -2.42188 -118.949 -2.42188C-119.663 -2.42188 -120.238 -2.13802 -120.676 -1.57031C-121.113 -1.0026 -121.332 -0.190104 -121.332 0.867188ZM-113.66 0.695312C-113.66 -0.132812 -113.499 -0.877604 -113.176 -1.53906C-112.848 -2.20052 -112.395 -2.71094 -111.816 -3.07031C-111.233 -3.42969 -110.569 -3.60938 -109.824 -3.60938C-108.673 -3.60938 -107.743 -3.21094 -107.035 -2.41406C-106.322 -1.61719 -105.965 -0.557292 -105.965 0.765625V0.867188C-105.965 1.6901 -106.124 2.42969 -106.441 3.08594C-106.754 3.73698 -107.204 4.24479 -107.793 4.60938C-108.376 4.97396 -109.048 5.15625 -109.809 5.15625C-110.954 5.15625 -111.884 4.75781 -112.598 3.96094C-113.306 3.16406 -113.66 2.10938 -113.66 0.796875V0.695312ZM-112.207 0.867188C-112.207 1.80469 -111.991 2.55729 -111.559 3.125C-111.121 3.69271 -110.538 3.97656 -109.809 3.97656C-109.074 3.97656 -108.491 3.6901 -108.059 3.11719C-107.626 2.53906 -107.41 1.73177 -107.41 0.695312C-107.41 -0.231771 -107.632 -0.981771 -108.074 -1.55469C-108.512 -2.13281 -109.095 -2.42188 -109.824 -2.42188C-110.538 -2.42188 -111.113 -2.13802 -111.551 -1.57031C-111.988 -1.0026 -112.207 -0.190104 -112.207 0.867188ZM-104.504 0.703125C-104.504 -0.59375 -104.197 -1.63542 -103.582 -2.42188C-102.967 -3.21354 -102.163 -3.60938 -101.168 -3.60938C-100.178 -3.60938 -99.3945 -3.27083 -98.8164 -2.59375V-7H-97.3711V5H-98.6992L-98.7695 4.09375C-99.3477 4.80208 -100.152 5.15625 -101.184 5.15625C-102.163 5.15625 -102.962 4.75521 -103.582 3.95312C-104.197 3.15104 -104.504 2.10417 -104.504 0.8125V0.703125ZM-103.059 0.867188C-103.059 1.82552 -102.861 2.57552 -102.465 3.11719C-102.069 3.65885 -101.522 3.92969 -100.824 3.92969C-99.9076 3.92969 -99.2383 3.51823 -98.8164 2.69531V-1.1875C-99.2487 -1.98438 -99.9128 -2.38281 -100.809 -2.38281C-101.517 -2.38281 -102.069 -2.10938 -102.465 -1.5625C-102.861 -1.01562 -103.059 -0.205729 -103.059 0.867188ZM-93.5508 5H-94.9961V-3.45312H-93.5508V5ZM-95.1133 -5.69531C-95.1133 -5.92969 -95.043 -6.1276 -94.9023 -6.28906C-94.7565 -6.45052 -94.543 -6.53125 -94.2617 -6.53125C-93.9805 -6.53125 -93.7669 -6.45052 -93.6211 -6.28906C-93.4753 -6.1276 -93.4023 -5.92969 -93.4023 -5.69531C-93.4023 -5.46094 -93.4753 -5.26562 -93.6211 -5.10938C-93.7669 -4.95312 -93.9805 -4.875 -94.2617 -4.875C-94.543 -4.875 -94.7565 -4.95312 -94.9023 -5.10938C-95.043 -5.26562 -95.1133 -5.46094 -95.1133 -5.69531ZM-87.7227 5.15625C-88.8685 5.15625 -89.8008 4.78125 -90.5195 4.03125C-91.2383 3.27604 -91.5977 2.26823 -91.5977 1.00781V0.742188C-91.5977 -0.0963542 -91.4388 -0.84375 -91.1211 -1.5C-90.7982 -2.16146 -90.3503 -2.67708 -89.7773 -3.04688C-89.1992 -3.42188 -88.5742 -3.60938 -87.9023 -3.60938C-86.8034 -3.60938 -85.9492 -3.2474 -85.3398 -2.52344C-84.7305 -1.79948 -84.4258 -0.763021 -84.4258 0.585938V1.1875H-90.1523C-90.1315 2.02083 -89.8893 2.69531 -89.4258 3.21094C-88.957 3.72135 -88.3633 3.97656 -87.6445 3.97656C-87.1341 3.97656 -86.7018 3.8724 -86.3477 3.66406C-85.9935 3.45573 -85.6836 3.17969 -85.418 2.83594L-84.5352 3.52344C-85.2435 4.61198 -86.306 5.15625 -87.7227 5.15625ZM-87.9023 -2.42188C-88.4857 -2.42188 -88.9753 -2.20833 -89.3711 -1.78125C-89.7669 -1.35938 -90.0117 -0.765625 -90.1055 0H-85.8711V-0.109375C-85.9128 -0.84375 -86.1107 -1.41146 -86.4648 -1.8125C-86.819 -2.21875 -87.2982 -2.42188 -87.9023 -2.42188ZM-76.6133 -6.375L-72.8945 2.90625L-69.1758 -6.375H-67.2305V5H-68.7305V0.570312L-68.5898 -4.21094L-72.3242 5H-73.4727L-77.1992 -4.1875L-77.0508 0.570312V5H-78.5508V-6.375H-76.6133ZM-65.1914 0.695312C-65.1914 -0.132812 -65.0299 -0.877604 -64.707 -1.53906C-64.3789 -2.20052 -63.9258 -2.71094 -63.3477 -3.07031C-62.7643 -3.42969 -62.1003 -3.60938 -61.3555 -3.60938C-60.2044 -3.60938 -59.2747 -3.21094 -58.5664 -2.41406C-57.8529 -1.61719 -57.4961 -0.557292 -57.4961 0.765625V0.867188C-57.4961 1.6901 -57.6549 2.42969 -57.9727 3.08594C-58.2852 3.73698 -58.7357 4.24479 -59.3242 4.60938C-59.9076 4.97396 -60.5794 5.15625 -61.3398 5.15625C-62.4857 5.15625 -63.4154 4.75781 -64.1289 3.96094C-64.8372 3.16406 -65.1914 2.10938 -65.1914 0.796875V0.695312ZM-63.7383 0.867188C-63.7383 1.80469 -63.5221 2.55729 -63.0898 3.125C-62.6523 3.69271 -62.069 3.97656 -61.3398 3.97656C-60.6055 3.97656 -60.0221 3.6901 -59.5898 3.11719C-59.1576 2.53906 -58.9414 1.73177 -58.9414 0.695312C-58.9414 -0.231771 -59.1628 -0.981771 -59.6055 -1.55469C-60.043 -2.13281 -60.6263 -2.42188 -61.3555 -2.42188C-62.069 -2.42188 -62.6445 -2.13802 -63.082 -1.57031C-63.5195 -1.0026 -63.7383 -0.190104 -63.7383 0.867188ZM-54.3242 -3.45312L-54.2852 -2.51562C-53.6654 -3.24479 -52.8294 -3.60938 -51.7773 -3.60938C-50.5951 -3.60938 -49.7904 -3.15625 -49.3633 -2.25C-49.082 -2.65625 -48.7174 -2.98438 -48.2695 -3.23438C-47.8164 -3.48438 -47.2826 -3.60938 -46.668 -3.60938C-44.8138 -3.60938 -43.8711 -2.6276 -43.8398 -0.664062V5H-45.2852V-0.578125C-45.2852 -1.18229 -45.4232 -1.63281 -45.6992 -1.92969C-45.9753 -2.23177 -46.4388 -2.38281 -47.0898 -2.38281C-47.6263 -2.38281 -48.0716 -2.22135 -48.4258 -1.89844C-48.7799 -1.58073 -48.9857 -1.15104 -49.043 -0.609375V5H-50.4961V-0.539062C-50.4961 -1.76823 -51.0977 -2.38281 -52.3008 -2.38281C-53.2487 -2.38281 -53.8971 -1.97917 -54.2461 -1.17188V5H-55.6914V-3.45312H-54.3242ZM-38.1445 5.15625C-39.2904 5.15625 -40.2227 4.78125 -40.9414 4.03125C-41.6602 3.27604 -42.0195 2.26823 -42.0195 1.00781V0.742188C-42.0195 -0.0963542 -41.8607 -0.84375 -41.543 -1.5C-41.2201 -2.16146 -40.7721 -2.67708 -40.1992 -3.04688C-39.6211 -3.42188 -38.9961 -3.60938 -38.3242 -3.60938C-37.2253 -3.60938 -36.3711 -3.2474 -35.7617 -2.52344C-35.1523 -1.79948 -34.8477 -0.763021 -34.8477 0.585938V1.1875H-40.5742C-40.5534 2.02083 -40.3112 2.69531 -39.8477 3.21094C-39.3789 3.72135 -38.7852 3.97656 -38.0664 3.97656C-37.556 3.97656 -37.1237 3.8724 -36.7695 3.66406C-36.4154 3.45573 -36.1055 3.17969 -35.8398 2.83594L-34.957 3.52344C-35.6654 4.61198 -36.7279 5.15625 -38.1445 5.15625ZM-38.3242 -2.42188C-38.9076 -2.42188 -39.3971 -2.20833 -39.793 -1.78125C-40.1888 -1.35938 -40.4336 -0.765625 -40.5273 0H-36.293V-0.109375C-36.3346 -0.84375 -36.5326 -1.41146 -36.8867 -1.8125C-37.2409 -2.21875 -37.7201 -2.42188 -38.3242 -2.42188ZM-31.8008 -3.45312L-31.7539 -2.39062C-31.1081 -3.20312 -30.2643 -3.60938 -29.2227 -3.60938C-27.4362 -3.60938 -26.5352 -2.60156 -26.5195 -0.585938V5H-27.9648V-0.59375C-27.9701 -1.20312 -28.1107 -1.65365 -28.3867 -1.94531C-28.6576 -2.23698 -29.082 -2.38281 -29.6602 -2.38281C-30.1289 -2.38281 -30.5404 -2.25781 -30.8945 -2.00781C-31.2487 -1.75781 -31.5247 -1.42969 -31.7227 -1.02344V5H-33.168V-3.45312H-31.8008ZM-22.3789 -5.5V-3.45312H-20.8008V-2.33594H-22.3789V2.90625C-22.3789 3.24479 -22.3086 3.5 -22.168 3.67188C-22.0273 3.83854 -21.7878 3.92188 -21.4492 3.92188C-21.2826 3.92188 -21.0534 3.89062 -20.7617 3.82812V5C-21.1419 5.10417 -21.5117 5.15625 -21.8711 5.15625C-22.5169 5.15625 -23.0039 4.96094 -23.332 4.57031C-23.6602 4.17969 -23.8242 3.625 -23.8242 2.90625V-2.33594H-25.3633V-3.45312H-23.8242V-5.5H-22.3789ZM-14.1836 2.75781C-14.1836 2.36719 -14.332 2.0651 -14.6289 1.85156C-14.9206 1.63281 -15.4336 1.44531 -16.168 1.28906C-16.8971 1.13281 -17.4779 0.945312 -17.9102 0.726562C-18.3372 0.507812 -18.6549 0.247396 -18.8633 -0.0546875C-19.0664 -0.356771 -19.168 -0.716146 -19.168 -1.13281C-19.168 -1.82552 -18.8763 -2.41146 -18.293 -2.89062C-17.7044 -3.36979 -16.9544 -3.60938 -16.043 -3.60938C-15.0846 -3.60938 -14.3086 -3.36198 -13.7148 -2.86719C-13.1159 -2.3724 -12.8164 -1.73958 -12.8164 -0.96875H-14.2695C-14.2695 -1.36458 -14.4388 -1.70573 -14.7773 -1.99219C-15.1107 -2.27865 -15.5326 -2.42188 -16.043 -2.42188C-16.569 -2.42188 -16.9805 -2.30729 -17.2773 -2.07812C-17.5742 -1.84896 -17.7227 -1.54948 -17.7227 -1.17969C-17.7227 -0.830729 -17.5846 -0.567708 -17.3086 -0.390625C-17.0326 -0.213542 -16.5352 -0.0442708 -15.8164 0.117188C-15.0924 0.278646 -14.5065 0.471354 -14.0586 0.695312C-13.6107 0.919271 -13.2799 1.1901 -13.0664 1.50781C-12.8477 1.82031 -12.7383 2.20312 -12.7383 2.65625C-12.7383 3.41146 -13.0404 4.01823 -13.6445 4.47656C-14.2487 4.92969 -15.0326 5.15625 -15.9961 5.15625C-16.6732 5.15625 -17.2721 5.03646 -17.793 4.79688C-18.3138 4.55729 -18.7227 4.22396 -19.0195 3.79688C-19.3112 3.36458 -19.457 2.89844 -19.457 2.39844H-18.0117C-17.9857 2.88281 -17.793 3.26823 -17.4336 3.55469C-17.069 3.83594 -16.5898 3.97656 -15.9961 3.97656C-15.4492 3.97656 -15.0117 3.86719 -14.6836 3.64844C-14.3503 3.42448 -14.1836 3.1276 -14.1836 2.75781ZM-10.8242 4.24219C-10.8242 3.99219 -10.7513 3.78385 -10.6055 3.61719C-10.4544 3.45052 -10.2305 3.36719 -9.93359 3.36719C-9.63672 3.36719 -9.41276 3.45052 -9.26172 3.61719C-9.10547 3.78385 -9.02734 3.99219 -9.02734 4.24219C-9.02734 4.48177 -9.10547 4.68229 -9.26172 4.84375C-9.41276 5.00521 -9.63672 5.08594 -9.93359 5.08594C-10.2305 5.08594 -10.4544 5.00521 -10.6055 4.84375C-10.7513 4.68229 -10.8242 4.48177 -10.8242 4.24219Z" fill="black"/>
<g id="Group">
<g id="Group_2">
<path id="Vector" d="M3.7966 0.00012207H1.26553C0.913954 0.00012207 0.615174 0.132713 0.369054 0.397819C0.123049 0.662975 0 0.984924 0 1.36379V4.09103C0 4.46987 0.122979 4.79177 0.369054 5.05687C0.615151 5.32195 0.914023 5.45459 1.26553 5.45459H2.74196C2.91766 5.45459 3.0671 5.52091 3.19015 5.65345C3.3132 5.78592 3.3747 5.94699 3.3747 6.13648V6.36362C3.3747 6.86555 3.20989 7.29392 2.88036 7.6491C2.5508 8.00411 2.15317 8.18168 1.68731 8.18168H1.26553C1.15121 8.18168 1.05238 8.22678 0.968853 8.31668C0.885397 8.40659 0.843634 8.51316 0.843634 8.63627V9.54547C0.843634 9.66839 0.885397 9.77516 0.968853 9.86508C1.05245 9.95496 1.15119 10.0001 1.26553 10.0001H1.68734C2.14437 10.0001 2.58049 9.90406 2.99576 9.71237C3.41101 9.52065 3.77021 9.26134 4.07342 8.93461C4.37656 8.60786 4.61717 8.22089 4.79511 7.77341C4.97304 7.32596 5.06204 6.85605 5.06204 6.36365V1.36369C5.06204 0.984825 4.93899 0.662901 4.69296 0.397794C4.44693 0.132688 4.14808 0.00012207 3.7966 0.00012207Z" fill="#F6762C"/>
<path id="Vector_2" d="M10.599 0.397697C10.353 0.132591 10.0542 0 9.7026 0H7.17164C6.82006 0 6.52128 0.132591 6.27526 0.397697C6.02925 0.662878 5.90625 0.984802 5.90625 1.36367V4.0909C5.90625 4.46974 6.02925 4.79164 6.27526 5.05675C6.52128 5.32183 6.82009 5.45447 7.17164 5.45447H8.64806C8.82377 5.45447 8.97332 5.52079 9.09634 5.65333C9.21925 5.78587 9.28089 5.94687 9.28089 6.13635V6.3635C9.28089 6.86543 9.11608 7.2938 8.78648 7.64898C8.45695 8.00399 8.05941 8.18156 7.59351 8.18156H7.17164C7.05741 8.18156 6.95849 8.22666 6.87505 8.31656C6.79155 8.40647 6.74974 8.51303 6.74974 8.63615V9.54535C6.74974 9.66826 6.79155 9.77503 6.87505 9.86496C6.95846 9.95484 7.05739 9.99996 7.17164 9.99996H7.59351C8.05048 9.99996 8.48657 9.90394 8.90189 9.71224C9.31707 9.52052 9.67622 9.26121 9.97945 8.93449C10.2827 8.60774 10.5234 8.22066 10.7012 7.77329C10.8791 7.32594 10.9682 6.85593 10.9682 6.36353V1.36357C10.9681 0.984703 10.8452 0.662779 10.599 0.397697Z" fill="#F6762C"/>
</g>
</g>
</g>
</g>
</g>
<defs>
<clipPath id="clip0_0_1">
<rect width="1600" height="5738" fill="white" transform="translate(-558 -3818)"/>
</clipPath>
</defs>
</svg>
